<svg xmlns="http://www.w3.org/2000/svg" viewBox="0 0 600 600" xmlns:v="https://vecta.io/nano"><style><![CDATA[.A{animation:ueBzxYNh_draw 2220ms linear 1000ms forwards}.B{animation:ueBzxYNh_draw 2220ms linear 1032ms forwards}.C{animation:ueBzxYNh_draw 2220ms linear 1065ms forwards}.D{animation:ueBzxYNh_draw 2220ms linear 1098ms forwards}.E{animation:ueBzxYNh_draw 2220ms linear 1130ms forwards}.F{animation:ueBzxYNh_draw 2220ms linear 1163ms forwards}.G{animation:ueBzxYNh_draw 2220ms linear 1196ms forwards}.H{animation:ueBzxYNh_draw 2220ms linear 1228ms forwards}.I{animation:ueBzxYNh_draw 2220ms linear 1261ms forwards}.J{animation:ueBzxYNh_draw 2220ms linear 1294ms forwards}.K{animation:ueBzxYNh_draw 2220ms linear 1327ms forwards}.L{animation:ueBzxYNh_draw 2220ms linear 1359ms forwards}.M{animation:ueBzxYNh_draw 2220ms linear 1392ms forwards}.N{animation:ueBzxYNh_draw 2220ms linear 1425ms forwards}.O{animation:ueBzxYNh_draw 2220ms linear 1457ms forwards}.P{animation:ueBzxYNh_draw 2220ms linear 1490ms forwards}.Q{animation:ueBzxYNh_draw 2220ms linear 1523ms forwards}.R{animation:ueBzxYNh_draw 2220ms linear 1556ms forwards}.S{animation:ueBzxYNh_draw 2220ms linear 1588ms forwards}.T{animation:ueBzxYNh_draw 2220ms linear 1621ms forwards}.U{animation:ueBzxYNh_draw 2220ms linear 1654ms forwards}.V{animation:ueBzxYNh_draw 2220ms linear 1686ms forwards}.W{animation:ueBzxYNh_draw 2220ms linear 1719ms forwards}.X{animation:ueBzxYNh_draw 2220ms linear 1752ms forwards}.Y{animation:ueBzxYNh_draw 2220ms linear 1784ms forwards}.Z{animation:ueBzxYNh_draw 2220ms linear 1817ms forwards}.a{animation:ueBzxYNh_draw 2220ms linear 1850ms forwards}.b{animation:ueBzxYNh_draw 2220ms linear 1883ms forwards}.c{animation:ueBzxYNh_draw 2220ms linear 1915ms forwards}.d{animation:ueBzxYNh_draw 2220ms linear 1948ms forwards}.e{animation:ueBzxYNh_draw 2220ms linear 1981ms forwards}.f{animation:ueBzxYNh_draw 2220ms linear 2013ms forwards}.g{animation:ueBzxYNh_draw 2220ms linear 2046ms forwards}.h{animation:ueBzxYNh_draw 2220ms linear 2079ms forwards}.i{animation:ueBzxYNh_draw 2220ms linear 2112ms forwards}.j{animation:ueBzxYNh_draw 2220ms linear 2144ms forwards}.k{animation:ueBzxYNh_draw 2220ms linear 2177ms forwards}.l{animation:ueBzxYNh_draw 2220ms linear 2210ms forwards}.m{animation:ueBzxYNh_draw 2220ms linear 2242ms forwards}.n{animation:ueBzxYNh_draw 2220ms linear 2275ms forwards}.o{animation:ueBzxYNh_draw 2220ms linear 2308ms forwards}.p{animation:ueBzxYNh_draw 2220ms linear 2340ms forwards}.q{animation:ueBzxYNh_draw 2220ms linear 2373ms forwards}.r{animation:ueBzxYNh_draw 2220ms linear 2406ms forwards}.s{animation:ueBzxYNh_draw 2220ms linear 2439ms forwards}.t{animation:ueBzxYNh_draw 2220ms linear 2471ms forwards}.u{animation:ueBzxYNh_draw 2220ms linear 2504ms forwards}.v{animation:ueBzxYNh_draw 2220ms linear 2537ms forwards}.w{animation:ueBzxYNh_draw 2220ms linear 2569ms forwards}.x{animation:ueBzxYNh_draw 2220ms linear 2602ms forwards}.y{animation:ueBzxYNh_draw 2220ms linear 2635ms forwards}.z{animation:ueBzxYNh_draw 2220ms linear 2667ms forwards}.AA{animation:ueBzxYNh_draw 2220ms linear 2700ms forwards}.AB{animation:ueBzxYNh_draw 2220ms linear 2733ms forwards}.AC{animation:ueBzxYNh_draw 2220ms linear 2766ms forwards}.AD{animation:ueBzxYNh_draw 2220ms linear 2798ms forwards}.AE{animation:ueBzxYNh_draw 2220ms linear 2831ms forwards}.AF{animation:ueBzxYNh_draw 2220ms linear 2864ms forwards}.AG{animation:ueBzxYNh_draw 2220ms linear 2896ms forwards}.AH{animation:ueBzxYNh_draw 2220ms linear 2929ms forwards}.AI{animation:ueBzxYNh_draw 2220ms linear 2962ms forwards}.AJ{animation:ueBzxYNh_draw 2220ms linear 2995ms forwards}.AK{animation:ueBzxYNh_draw 2220ms linear 3027ms forwards}.AL{animation:ueBzxYNh_draw 2220ms linear 3060ms forwards}.AM{animation:ueBzxYNh_draw 2220ms linear 3093ms forwards}.AN{animation:ueBzxYNh_draw 2220ms linear 3125ms forwards}.AO{animation:ueBzxYNh_draw 2220ms linear 3158ms forwards}.AP{animation:ueBzxYNh_draw 2220ms linear 3191ms forwards}.AQ{animation:ueBzxYNh_draw 2220ms linear 3224ms forwards}.AR{animation:ueBzxYNh_draw 2220ms linear 3256ms forwards}.AS{animation:ueBzxYNh_draw 2220ms linear 3289ms forwards}.AT{animation:ueBzxYNh_draw 2220ms linear 3322ms forwards}.AU{animation:ueBzxYNh_draw 2220ms linear 3354ms forwards}.AV{animation:ueBzxYNh_draw 2220ms linear 3387ms forwards}.AW{animation:ueBzxYNh_draw 2220ms linear 3420ms forwards}.AX{animation:ueBzxYNh_draw 2220ms linear 3452ms forwards}.AY{animation:ueBzxYNh_draw 2220ms linear 3485ms forwards}.AZ{animation:ueBzxYNh_draw 2220ms linear 3518ms forwards}.Aa{animation:ueBzxYNh_draw 2220ms linear 3551ms forwards}.Ab{animation:ueBzxYNh_draw 2220ms linear 3583ms forwards}.Ac{animation:ueBzxYNh_draw 2220ms linear 3616ms forwards}.Ad{animation:ueBzxYNh_draw 2220ms linear 3649ms forwards}.Ae{animation:ueBzxYNh_draw 2220ms linear 3681ms forwards}.Af{animation:ueBzxYNh_draw 2220ms linear 3714ms forwards}.Ag{animation:ueBzxYNh_draw 2220ms linear 3747ms forwards}.Ah{animation:ueBzxYNh_draw 2220ms linear 3780ms forwards}@keyframes ueBzxYNh_draw{100%{stroke-dashoffset:0}} @keyframes ueBzxYNh_fade{0%{stroke-opacity:1}95.65217391304348%{stroke-opacity:1}100%{stroke-opacity:0}} @keyframes ueBzxYNh_draw{100%{stroke-dashoffset:0}} @keyframes ueBzxYNh_fade{0%{stroke-opacity:1}95.65217391304348%{stroke-opacity:1}100%{stroke-opacity:0}}.Ai{stroke-dasharray:612 614}.Aj{stroke-dashoffset:613}.Ak{stroke-dasharray:621 623}.Al{stroke-dashoffset:622}.Am{stroke-dasharray:618 620}.An{stroke-dashoffset:619}.Ao{stroke-dasharray:615 617}.Ap{stroke-dashoffset:616}.Aq{stroke-dasharray:630 632}.Ar{stroke-dashoffset:631}.As{stroke-dasharray:636 638}.At{stroke-dashoffset:637}.Au{stroke-dasharray:645 647}.Av{stroke-dashoffset:646}.Aw{stroke-dasharray:498 500}.Ax{stroke-dashoffset:499}.Ay{stroke-dasharray:657 659}.Az{stroke-dashoffset:658}.BA{stroke-dasharray:462 464}.BB{stroke-dashoffset:463}.BC{stroke-dasharray:306 308}.BD{stroke-dashoffset:307}.BE{stroke-dasharray:669 671}.BF{stroke-dashoffset:670}]]></style><g fill="none" stroke="#2d2d2d"><path d="M598.75 418.5l-30 .12-17.99.63-14.93 1.43-14.73 2.77-11.44 3.61-5.49 2.42-5.23 2.93-4.8 3.59-2.13 2.1-3.53 4.82-2.28 1.94-5.1 3.14-5.48 2.45-5.68 1.93-5.8 1.53-8.84 1.7-11.91 1.46-14.96.95-51 .49-17.99.62-14.94 1.32-14.78 2.51-11.52 3.32-8.22 3.64-5.02 3.28-2.19 2.04-1.75 2.41-2.34 1.88-5.24 2.91-8.43 3.12-11.68 2.73-14.86 1.98-14.97.99-14.99.39-48 .34-14.99.69-11.94 1.09-14.8 2.41-11.55 3.23-8.21 3.66-2.53 1.61-4.35 4.1-5.17 3.03-8.44 3.09-11.69 2.67-11.89 1.64L57 520.48l-18 .45-39 .15" class="B Ak Al"/><path d="M598.9 430.5l-36 .18-14.99.54-14.94 1.32-14.77 2.57-11.5 3.41-8.21 3.67-5.07 3.19-2.32 1.9-2.04 2.2-1.72 2.45-2.18 2.06-2.42 1.76-5.25 2.9-5.55 2.26-5.73 1.79-5.83 1.41-8.86 1.58-11.92 1.34-14.98.87-50.99.45-15 .47-14.95 1.13-14.83 2.21-11.62 2.96-8.37 3.3-5.2 2.98-2.34 1.87-1.92 2.29-2.25 1.99-2.51 1.64-5.39 2.62-8.53 2.85-11.73 2.5-11.9 1.53-14.96 1.04-18 .47-47.99.35-14.99.72-11.94 1.13-14.79 2.48-5.81 1.47-5.71 1.86-5.49 2.4-2.61 1.49-2.39 1.8-1.87 2.32-5.04 3.23-8.39 3.24-11.66 2.77-14.86 2.01-14.97 1.03-17.99.49-36 .12" class="C Am An"/><path d="M598.6 406.5l-33 .16-17.99.7-14.91 1.58-8.85 1.6-5.83 1.43-5.74 1.76-5.59 2.15-5.41 2.6-5.1 3.15-4.63 3.81-1.99 2.24-1.55 2.56-1.89 2.33-2.22 2.01-4.98 3.34-5.38 2.64-5.62 2.09-5.77 1.67-8.8 1.86-14.88 1.89-14.97.89-47.99.43-17.99.6-14.94 1.31-14.78 2.52-11.52 3.34-8.21 3.67-5.02 3.28-2.19 2.04-1.67 2.48-2.2 2.03-2.47 1.7-5.32 2.76-8.47 3.03-11.69 2.67-11.89 1.63-14.95 1.12-18 .5-47.99.37-14.98.76-11.94 1.2-14.76 2.62-5.8 1.55-5.67 1.96-5.45 2.49-2.58 1.54-2.38 1.82-1.88 2.31-2.33 1.88-5.26 2.87-8.47 3.03-8.75 2.09-14.84 2.16-14.96 1.12-17.99.53-36 .13" class="D Ak Al"/><path d="M599.04 442.5l-33 .13-17.99.53-14.95 1.22-14.8 2.41-11.56 3.2-8.29 3.48-5.15 3.06-2.36 1.85-3.92 4.53-2.28 1.94-2.5 1.66-5.34 2.71-5.62 2.12-5.76 1.66-11.76 2.35-11.92 1.42-14.97.94-17.99.38-36 .15-14.99.47-14.96 1.12-14.83 2.19-11.63 2.94-8.37 3.28-5.18 3.02-2.27 1.95-1.98 2.25-2.4 1.8-2.59 1.51-5.49 2.41-8.6 2.64-11.77 2.31-11.92 1.41-14.96.95-15 .38-48 .31-14.98.63-11.96 1-14.83 2.24-11.6 3.03-8.28 3.49-2.56 1.57-4.37 4.05-5.26 2.86-8.5 2.94-11.72 2.54L69 535.36l-17.97 1.05-51 .42" class="E Am An"/><path d="M598.44 394.5l-33 .18-17.98.78-14.9 1.74-8.82 1.77-5.79 1.55-5.69 1.91-5.53 2.32-5.32 2.77-5.01 3.3-4.52 3.93-1.97 2.27-3.26 5.02-2.08 2.15-2.31 1.91-5.06 3.22-5.42 2.57-5.64 2.04-11.63 2.92-14.85 2.09-14.97 1-14.99.36-36 .17-14.99.53-17.92 1.68-11.8 2.13-11.52 3.33-8.23 3.62-5.08 3.19-2.29 1.94-3.78 4.62-2.33 1.88-5.16 3.05-8.36 3.32-11.63 2.94-11.86 1.81-17.94 1.39-17.99.47-45 .32-14.98.72-11.94 1.14-14.78 2.54-11.5 3.38-8.14 3.83-2.48 1.68-4.25 4.21-5.06 3.21-8.34 3.34-11.64 2.89-14.85 2.11-14.96 1.08-17.99.5-36 .12" class="F" stroke-dasharray="624 626" stroke-dashoffset="625"/><path d="M599.18 454.5l-33 .12-18 .49-17.93 1.49-11.85 1.91-11.6 3.01-8.36 3.32-5.22 2.95-2.4 1.8-4.03 4.42-2.36 1.85-2.55 1.58-5.42 2.56-5.66 1.99-5.79 1.56-11.79 2.2-11.93 1.34-14.97.87-51 .45-17.99.51-14.96 1.11-14.84 2.15-11.64 2.89-8.38 3.26-5.16 3.04-4.3 4.15-2.49 1.66-5.4 2.61-8.55 2.79-11.75 2.43-11.9 1.49-17.97 1.14-62.99.66-14.99.64-11.95 1.02-14.83 2.25-11.59 3.05-8.25 3.57-2.5 1.65-2.11 2.12-2.43 1.76-5.4 2.6-8.58 2.71-8.8 1.86-11.89 1.63-17.95 1.28-17.99.46-36 .11" class="G Ao Ap"/><path d="M598.26 382.5l-33 .2-17.97.89-14.87 1.95-8.78 1.95-5.75 1.71-5.63 2.09-5.45 2.49-5.22 2.96-4.89 3.46-4.42 4.06-1.94 2.29-3.07 5.14-1.9 2.31-2.17 2.07-4.85 3.52-5.29 2.83-5.56 2.27-5.72 1.8-8.76 2.04-11.87 1.75-14.95 1.14-15 .43-35.99.17-17.99.68-14.93 1.46-14.73 2.79-11.42 3.66-8.08 3.94-4.89 3.46-2.14 2.1-1.64 2.49-2.08 2.16-2.38 1.83-5.19 2.99-8.37 3.3-11.63 2.92-14.84 2.12-14.96 1.05-15 .42-48 .38-14.97.78-11.94 1.23-14.75 2.7-5.78 1.59-5.66 2-5.44 2.52-2.58 1.53-2.41 1.78-4.16 4.29-5.09 3.16-8.35 3.33-11.64 2.89-14.85 2.1-14.96 1.08-17.99.49-36 .12" class="H" stroke-dasharray="627 629" stroke-dashoffset="628"/><path d="M599.3 466.5l-33 .11-17.99.46-14.96 1.08-14.84 2.12-11.65 2.85-8.42 3.17-5.28 2.84-2.43 1.75-4.1 4.35-2.42 1.77-2.6 1.5-5.48 2.43-5.7 1.88-5.81 1.48-11.81 2.08-11.94 1.26-14.97.81-54 .47-14.99.46-14.96 1.09-14.85 2.1-11.65 2.84-8.4 3.22-5.15 3.05-4.44 4.02-2.56 1.55-5.48 2.43-8.61 2.62-11.78 2.27-11.91 1.4-14.97.94-15 .39-50.99.35-14.99.66-11.95 1.02-14.83 2.26-11.59 3.07-5.56 2.24-2.65 1.41-4.64 3.78-5.26 2.86-8.51 2.88-11.74 2.46-14.89 1.78-14.97.91-18 .42-36 .1" class="I Ao Ap"/><path d="M598.07 370.51l-30 .16-14.98.58-14.91 1.63-11.74 2.45-8.58 2.7-5.55 2.29-5.35 2.7-5.11 3.15-4.77 3.64-4.3 4.17-3.56 4.82-1.17 2.74-1.63 2.52-4.16 4.31-2.36 1.85-5.09 3.16-5.43 2.56-5.63 2.04-5.78 1.64-8.81 1.82-14.89 1.81-17.97.87-39 .25-14.99.44-14.95 1.18-14.81 2.38-11.56 3.18-5.6 2.15-5.38 2.65-5.03 3.26-2.3 1.93-2.02 2.21-1.6 2.53-2.11 2.13-2.38 1.83-5.18 3-8.35 3.34-11.62 2.97-11.86 1.83-14.95 1.24-17.99.57-47.99.4-14.98.81-11.93 1.29-8.87 1.48-5.86 1.32-5.76 1.65-5.64 2.07-5.4 2.6-2.55 1.57-2.38 1.83-4.13 4.33-5.07 3.18-8.33 3.38-11.63 2.94-14.84 2.15-14.96 1.09-17.99.5-36 .13" class="J Aq Ar"/><path d="M599.43 478.5l-33 .1-20.99.58-14.96 1.18-14.82 2.26-11.6 3.05-8.32 3.41-5.08 3.16-4.14 4.29-2.47 1.7-5.37 2.68-5.64 2.03-5.78 1.59-5.87 1.25-8.89 1.38-14.93 1.4-14.99.65-48 .32-17.99.49-14.96 1.07-11.9 1.53-11.74 2.47-8.55 2.79-5.41 2.59-2.49 1.66-4.52 3.91-2.62 1.46-5.54 2.3-8.65 2.47-11.8 2.16-11.92 1.31-14.98.88-17.99.4-48 .31-14.98.66-11.96 1.02-11.88 1.69-11.68 2.71-8.42 3.17-2.63 1.43-4.62 3.78-5.37 2.66-8.57 2.71-11.77 2.32-11.92 1.42-17.96 1.1-18 .38-32.99.08" class="K Ai Aj"/><path d="M597.86 358.51l-33 .26-14.97.86-8.93 1.12-5.9 1.08-8.72 2.21-5.68 1.92-8.24 3.61-5.24 2.93-4.96 3.36-4.63 3.82-4.2 4.28-1.87 2.35-1.67 2.49-2.59 5.39-1.74 2.44-2 2.24-4.57 3.88-5.08 3.18-5.41 2.58-5.63 2.08-8.68 2.34-11.82 2.04-14.94 1.35-14.99.52-45 .42-14.97.93-11.9 1.49-8.83 1.73-5.8 1.53-5.7 1.88-5.54 2.31-5.3 2.8-4.91 3.44-2.21 2.02-3.6 4.79-2.14 2.09-4.92 3.43-5.36 2.68-5.62 2.11-11.61 3-11.85 1.85-14.95 1.25-17.99.57-47.99.42-14.98.86-11.92 1.34-8.86 1.56-5.84 1.37-5.75 1.72-5.6 2.14-5.36 2.7-2.52 1.62-2.33 1.89-4.08 4.37-5.06 3.2-8.32 3.42-11.61 2.99-14.84 2.18-17.95 1.24-18 .4-33 .1" class="L" stroke-dasharray="633 635" stroke-dashoffset="634"/><path d="M599.54 490.5l-35.99.13-18 .51-14.95 1.12-14.84 2.15-11.64 2.9-8.37 3.28-5.15 3.07-4.25 4.18-2.52 1.62-5.43 2.56-5.67 1.93-5.81 1.51-14.78 2.51-11.95 1.12-14.98.73-65.99.74-14.97.9-14.89 1.78-11.75 2.42-8.57 2.75-5.41 2.57-2.49 1.67-1.98 2.22-2.45 1.72-2.66 1.39-5.58 2.19-8.68 2.35-11.82 2.04-11.94 1.25-14.97.84-66 .68-14.98.65-11.96 1.01-11.88 1.67-11.69 2.68-8.42 3.16-2.62 1.45-4.75 3.63-5.46 2.49-8.62 2.55-8.83 1.73-14.89 1.79-14.97.92-18 .43-36 .11" class="M Ai Aj"/><path d="M597.63 346.51l-33 .31-14.96 1.03-8.9 1.31-5.87 1.25-8.63 2.54-5.6 2.16-8.06 4-5.09 3.17-4.81 3.58-4.48 3.99-4.08 4.4-3.52 4.85-3.93 8.07-1.75 2.43-1.99 2.24-4.52 3.93-5.04 3.26-5.38 2.65-5.6 2.15-8.66 2.42-11.81 2.1-14.94 1.39-17.99.57-41.99.4-14.97 1-11.89 1.59-8.81 1.83-5.78 1.61-5.66 1.98-5.49 2.41-5.24 2.91-4.84 3.55-2.17 2.07-3.5 4.85-2.1 2.14-4.85 3.52-5.33 2.76-5.58 2.18-11.58 3.11-11.85 1.92-14.94 1.3-17.99.6-47.99.42-14.97.87-11.93 1.36-8.86 1.58-5.83 1.39-5.74 1.74-5.6 2.16-5.35 2.71-2.52 1.63-2.34 1.87-3.98 4.46-4.97 3.34-8.26 3.55-11.58 3.11-14.82 2.27-14.96 1.16-17.99.54-36 .13" class="N As At"/><path d="M599.66 502.5l-36 .12-17.99.49-17.95 1.37-11.87 1.74-11.67 2.78-8.42 3.14-5.2 2.99-4.41 4.02-2.56 1.56-5.48 2.43-5.71 1.85-5.82 1.44-14.81 2.37-11.95 1.07-14.98.69-51 .36-17.99.48-14.97 1.03-11.9 1.47-11.76 2.38-8.58 2.71-5.42 2.56-2.46 1.7-2.17 2.07-2.55 1.58-8.34 3.34-8.72 2.2-11.85 1.92-11.94 1.17-14.98.77-62.99.58-14.99.56-11.97.89-14.86 1.98-11.69 2.71-8.39 3.21-2.58 1.53-2.1 2.1-5.26 2.84-8.56 2.76-11.77 2.32-14.9 1.68-17.98.97-50.99.39" class="O Ai Aj"/><path d="M597.36 334.51l-30 .27-14.96.99-8.9 1.34-5.86 1.3-8.6 2.64-5.56 2.25-7.99 4.13-5.05 3.24-4.79 3.61-6.61 6.09-3.96 4.51-3.49 4.88-1.5 2.59-2.29 5.54-3.16 5.09-1.95 2.28-4.43 4.03-4.97 3.36-5.32 2.77-5.57 2.23-8.63 2.54-11.79 2.21-14.92 1.45-14.99.55-45 .47-14.96 1.04-11.88 1.65-8.79 1.91-5.77 1.67-5.64 2.04-5.46 2.47-5.21 2.98-4.79 3.59-2.16 2.09-1.86 2.34-1.53 2.58-2 2.24-4.73 3.67-5.25 2.9-5.54 2.29-5.71 1.83-5.83 1.44-14.8 2.39-14.95 1.2-14.99.47-48 .42-14.97.85-11.92 1.35-8.87 1.56-5.83 1.38-5.75 1.72-5.6 2.14-7.92 4.26-2.38 1.82-3.98 4.47-4.83 3.54-8.16 3.75-11.54 3.28-14.8 2.4-14.94 1.23-17.99.58-36 .15" class="P" stroke-dasharray="639 641" stroke-dashoffset="640"/><path d="M599.77 514.5l-36 .12-17.99.46-14.97 1.01-14.87 1.96-11.69 2.66-8.47 3.03-5.24 2.89-4.53 3.91-2.6 1.49-5.52 2.34-5.73 1.76-5.85 1.37-14.82 2.27-11.95 1.02-14.99.65-51 .35-17.99.47-14.96 1-11.91 1.44-11.77 2.33-8.59 2.66-5.43 2.54-4.74 3.67-2.6 1.47-5.56 2.26-8.67 2.37-11.82 2.06-11.94 1.25-14.97.85-18 .39-48 .27-14.98.56-11.97.89-14.87 1.97-11.68 2.7-5.66 1.98-2.72 1.27-4.86 3.48-5.41 2.58-8.62 2.56-11.8 2.17-14.91 1.57-14.98.8-18 .36-36 .09" class="Q Ai Aj"/><path d="M597.05 322.52l-30 .33-14.94 1.25-8.84 1.65-5.79 1.57-8.44 3.12-5.41 2.59-5.21 2.97-7.38 5.14-6.81 5.89-4.17 4.31-3.85 4.6-3.45 4.9-2.92 5.24-2.14 5.6-3.03 5.16-1.88 2.34-4.3 4.18-4.85 3.53-5.24 2.91-5.51 2.37-8.58 2.7-11.76 2.36-14.92 1.56-14.98.6-45 .47-14.96 1.04-11.88 1.68-8.79 1.93-5.75 1.69-5.64 2.06-5.45 2.49-5.2 2.99-4.81 3.58-4.12 4.35-1.51 2.59-1.84 2.36-4.55 3.89-5.15 3.07-5.48 2.44-5.67 1.94-5.8 1.55-14.77 2.55-14.94 1.29-14.99.53-51 .51-11.98.71-11.92 1.3-8.87 1.53-5.85 1.35-5.76 1.68-5.62 2.08-5.41 2.59-5.02 3.27-2.22 2.01-1.78 2.41-2.13 2.11-5.01 3.29-8.26 3.55-11.58 3.12-14.82 2.28-14.95 1.15-20.99.57-33 .1" class="R Au Av"/><path d="M599.88 526.5l-36 .11-18 .44-14.96.96-14.88 1.88-11.72 2.55-8.51 2.92-5.29 2.81-4.62 3.8-2.63 1.43-5.56 2.25-11.61 3-14.84 2.17-11.96.97-14.99.62-65.99.68-17.96 1.1-11.92 1.41-11.78 2.27-8.6 2.61-5.44 2.52-4.76 3.63-2.64 1.4-5.6 2.15-8.71 2.26-11.84 1.96-11.94 1.19-14.97.8-66 .64-14.99.56-11.96.87-14.87 1.95-11.69 2.67-8.38 3.26-4.9 3.43-5.48 2.42-8.66 2.43-11.82 2.06-11.93 1.26-17.97.97-51 .41" class="S" stroke-dasharray="609 611" stroke-dashoffset="610"/><path d="M599.68 310.43l-30 .41-8.98.55-5.95.72-8.82 1.79-5.75 1.72-5.6 2.15-8.05 4-5.11 3.15-7.24 5.34-6.71 6-6.14 6.57-3.75 4.68-4.98 7.49-2.75 5.33-3.26 8.37-1.54 2.57-1.77 2.43-4.1 4.37-4.69 3.73-5.13 3.11-5.43 2.54-8.51 2.92-11.72 2.56-14.89 1.72-14.99.68-33 .19-14.99.41-14.95 1.2-11.85 1.87-8.74 2.13-5.71 1.85-5.56 2.24-5.36 2.69-5.07 3.2-4.62 3.82-2.04 2.2-3.27 5.02-2.01 2.22-4.71 3.71-5.22 2.95-5.51 2.35-11.51 3.36-11.82 2.08-14.93 1.42-20.98.7-45 .4-14.97.89-11.92 1.41-8.85 1.64-5.82 1.44-5.73 1.79-5.57 2.21-7.84 4.39-2.35 1.86-3.9 4.54-4.77 3.62-8.12 3.85-5.7 1.89-5.81 1.49-14.79 2.47-14.94 1.27-17.99.61-36 .15" class="T" stroke-dasharray="651 653" stroke-dashoffset="652"/><path d="M599.98 538.5l-51 .41-14.97.79-11.94 1.19-11.84 1.93-8.73 2.19-8.39 3.23-2.6 1.49-4.71 3.7-5.42 2.55-5.7 1.86-5.83 1.43-11.83 1.99-11.94 1.21-11.97.7-18 .45-51 .32-14.98.6-14.95 1.25-11.87 1.75-11.65 2.83-5.62 2.1-2.67 1.36-4.69 3.66-5.46 2.46-8.65 2.49-11.8 2.12-14.92 1.53-14.98.77-63 .55-14.99.46-11.98.75-14.9 1.7-11.76 2.32-8.57 2.75-2.71 1.27-2.43 1.73" class="U Aw Ax"/><path d="M599.01 298.45l-29.99.62-11.93 1.26-8.76 2.05-5.66 1.97-5.49 2.43-7.84 4.4-7.37 5.17-6.88 5.79-6.41 6.31-7.79 9.13-5.19 7.35-3.07 5.15-2.64 5.38-1.85 5.7-2.53 5.43-1.65 2.51-3.87 4.57-4.51 3.95-4.99 3.32-5.34 2.74-8.42 3.16-11.66 2.81-14.87 1.9-17.98.85-44.99.51-14.96 1.13-11.86 1.79-8.76 2.06-5.72 1.79-5.59 2.18-5.4 2.61-5.13 3.11-4.73 3.68-4.04 4.42-3.26 5.02-2.11 2.13-4.8 3.58-8.03 4.06-5.64 2.03-5.77 1.62-5.87 1.28-8.88 1.41-14.94 1.36-17.99.61-47.99.47-11.98.71-11.93 1.31-8.86 1.53-5.85 1.36-5.75 1.69-5.63 2.09-5.41 2.59-5.03 3.24-2.26 1.97-3.87 4.57-4.89 3.45-8.18 3.73-5.72 1.83-5.82 1.44-14.8 2.4-14.95 1.22-17.99.57-36 .15" class="V Ay Az"/><path d="M597.05 550.52l-33 .08-17.99.4-17.97 1.15-11.9 1.46-11.77 2.36-8.57 2.72-5.37 2.65-4.78 3.6-2.69 1.33-5.62 2.08-11.67 2.77-14.87 1.99-11.96.89-14.99.57-65.99.64-14.98.8-14.92 1.58-11.79 2.17-8.64 2.52-5.46 2.46-4.9 3.44-2.72 1.26-5.67 1.95-11.71 2.58-11.9 1.58-14.96 1.11-14.99.53-65.99.59-14.98.76-11.95 1.12" class="W BA BB"/><path d="M598.14 286.48l-5.98.41-21 .33-5.97.54-5.92 1.01-5.79 1.57-8.34 3.36-5.29 2.82-7.54 4.9-7.1 5.54-8.82 8.12-8.13 8.83-5.62 7.02-5.16 7.37-3.13 5.12-4.05 8.04-2.93 8.5-1.29 2.7-1.53 2.58-3.66 4.75-4.34 4.14-4.86 3.51-5.23 2.92-8.33 3.39-5.76 1.7-8.8 1.87-14.88 1.79-14.99.71-44.99.49-14.96 1.06-11.87 1.72-8.78 1.99-5.74 1.74-5.62 2.11-5.43 2.54-7.65 4.73-4.56 3.88-2.02 2.22-3.2 5.06-1.94 2.29-4.6 3.84-5.15 3.06-5.48 2.45-5.67 1.95-5.79 1.56-14.77 2.57-14.94 1.28-14.99.52-48 .44-14.97.88-11.92 1.41-8.85 1.62-5.82 1.44-5.73 1.79-5.58 2.2-5.34 2.73-4.91 3.44-2.12 2.11-1.57 2.55-2.14 2.09-4.99 3.32-8.23 3.6-8.64 2.52-14.76 2.62-17.93 1.54-20.99.57-33 .11" class="X" stroke-dasharray="663 665" stroke-dashoffset="664"/><path d="M597.12 562.52l-48 .36-14.98.73-11.95 1.09-11.86 1.79-11.64 2.9-5.59 2.16-2.65 1.41-4.85 3.51-5.51 2.36-8.66 2.43-8.85 1.64-14.9 1.69-14.97.87-21 .44-44.99.21-17.99.64-11.97.89-14.86 1.97-11.69 2.72-5.64 2.03-2.68 1.35-4.96 3.33" class="Y BC BD"/><path d="M599.87 274.08l-8.91 1.2-17.99.44-8.86 1.53-5.68 1.92-5.45 2.51-7.75 4.57-7.31 5.24-9.2 7.71-8.63 8.33-8.08 8.86-7.5 9.37-5.18 7.36-4.7 7.67-4.02 8.05-4.05 11.27-1.43 2.64-3.48 4.88-4.18 4.3-7.27 5.28-5.31 2.79-8.4 3.22-11.64 2.85-14.87 1.93-17.98.86-30 .15-14.99.39-14.95 1.18-11.85 1.88-5.85 1.34-8.6 2.65-5.56 2.25-5.36 2.68-5.08 3.19-4.68 3.75-3.98 4.48-3.2 5.05-4.39 4.08-5.03 3.24-5.41 2.6-5.63 2.08-5.76 1.65-5.86 1.31-8.88 1.44-14.93 1.39-14.99.58-51 .52-14.96.98-11.91 1.5-8.83 1.74-5.8 1.52-5.69 1.89-5.53 2.34-5.25 2.89-2.45 1.72-2.27 1.96-3.76 4.65-4.82 3.54-8.14 3.82-5.7 1.88-5.81 1.48-14.79 2.46-17.94 1.42-14.99.44-36 .14" class="Z BE BF"/><path d="M597.18 574.52l-33 .07-17.99.37-17.97 1.06-11.92 1.36-11.8 2.19-8.63 2.54-5.44 2.5-4.91 3.42-8.41 3.17-11.72 2.56-11.89 1.56-14.96 1.11-14.99.51-66 .61-14.98.76-14.92 1.51" class="a" stroke-dasharray="273 275" stroke-dashoffset="274"/><path d="M1.77 26.45l33 .13 17.99.66 14.93 1.4 8.89 1.42 5.86 1.28 5.77 1.62L93.86 35l8 4.09 4.75 3.65 5.66 6.95 2.28 1.95 7.68 4.67 5.5 2.4 5.67 1.95 5.79 1.57 8.82 1.79 11.9 1.54 14.96.97 48 .48 14.99.59 14.92 1.46 11.8 2.16 5.79 1.55 5.68 1.95 5.49 2.41 5.21 2.97 2.46 1.72 4.49 3.97 3.67 4.73 2.8 5.29 1.83 2.38 2.04 2.19 4.53 3.93 4.96 3.38 5.26 2.88 5.49 2.42 5.65 2.01 5.77 1.63 8.81 1.83 14.9 1.75 14.98.66 39 .37 11.97.71 8.94 1.02 8.85 1.62 8.67 2.4 8.34 3.38 7.76 4.54 4.7 3.72 4.23 4.26 5.26 7.28 3.86 8.12 3.12 11.56 3.26 8.39 5.32 10.75 6.11 10.33 5.01 7.47 5.35 7.24 7.64 9.25 6.1 6.62 8.62 8.34 6.87 5.81 7.24 5.34 7.71 4.64 5.48 2.43 5.8 1.51 5.97.52 9 .1 5.95.69 2.82 1.02 2.44 4.95-2.08 2.03-2.86.88-2.97.36-11.99.38-2.96.47-5.75 1.7-5.48 2.43-5.26 2.88-7.56 4.89-7.22 5.37-6.93 5.74-8.81 8.14-8.33 8.64-5.92 6.78-7.4 9.44-5.12 7.4-4.65 7.71-3.97 8.07" class="b" stroke-dasharray="831 833" stroke-dashoffset="832"/><path d="M2.44 34.66l32.99.15 17.99.72 14.92 1.5 5.92.94 8.79 1.94 5.75 1.73 5.59 2.16 7.89 4.31 4.61 3.82 1.95 2.28 1.56 2.55 1.93 2.29 2.23 2.01 7.55 4.87 5.44 2.53 5.63 2.07 8.67 2.4 5.88 1.2 11.88 1.66 14.96 1.05 48 .52 14.98.61 14.92 1.53 11.78 2.27 5.77 1.63 5.64 2.04 5.45 2.52 5.14 3.08 4.71 3.7 4.09 4.39 1.72 2.45 4.03 8.01 3.75 4.68 4.35 4.13 4.78 3.62 5.11 3.15 5.36 2.69 8.39 3.23 5.77 1.66 8.8 1.86 14.89 1.74 14.99.61 33 .26 8.99.4 8.96.8 8.89 1.36 5.86 1.3 5.76 1.69 5.6 2.14 5.39 2.63 5.09 3.17 6.89 5.78 3.99 4.48 3.45 4.9 2.92 5.24 2.39 5.5 2.65 8.59 2.79 14.73 8.55 34.97 2.34 14.81.64 11.98-.63 11.98-2.38 14.8-7.35 29.08-2.52 11.73-1.98 5.66-1.26 2.72-3.06 5.16-1.79 2.41-5.99 6.7-7.05 5.58-5.19 2.99-5.48 2.44-5.68 1.95-5.8 1.53-5.88 1.17-8.92 1.2-14.96.97-36 .31-14.99.6-14.9 1.67-8.82 1.76-5.79 1.57-8.47 3.04-5.44 2.52-5.22 2.96-4.92 3.43-6.59 6.11-3.49 4.86-1.14 2.77-1.66 2.5-1.98 2.25-2.2 2.03-4.87 3.5-5.29 2.83-5.55 2.28-11.54 3.26-11.83 2-14.93 1.34-17.99.56-45 .45-14.96 1.02-11.89 1.58-8.82 1.82-5.78 1.59-5.67 1.96-5.49 2.41-7.67 4.69-2.28 1.94-3.67 4.72-2.14 2.1-4.94 3.39-8.18 3.73-8.61 2.62-5.86 1.29-8.88 1.44-14.93 1.43-20.98.73-33 .12" class="c" stroke-dasharray="1212 1214" stroke-dashoffset="1213"/><path d="M597.24 586.52l-47.99.33-14.99.67-14.93 1.36-11.85 1.87-8.74 2.15-5.64 2.04-2.68 1.33-4.98 3.33" class="d" stroke-dasharray="114 116" stroke-dashoffset="115"/><path d="M1.89 14.45l36 .15 17.98.63 17.92 1.72 11.79 2.18 5.8 1.55 5.67 1.96 8.06 3.97 4.72 3.68 3.76 4.66 2.27 1.96 2.45 1.72 5.24 2.92 5.52 2.35 5.68 1.92 5.8 1.54 8.83 1.76 11.9 1.52 14.96.98 51 .53 14.98.6 14.93 1.43 11.81 2.11 5.81 1.51 5.69 1.9 5.51 2.37 5.22 2.95 4.73 3.68 2.06 2.17 3.19 5.07 4 4.46 4.69 3.73 5.11 3.14 5.38 2.65 5.58 2.2 5.72 1.8 8.76 2.08 11.86 1.8 14.95 1.13 45 .52 14.98.61 14.91 1.61 11.75 2.44 8.55 2.77 5.49 2.43 5.21 2.96 4.83 3.56 4.3 4.18 3.58 4.8 1.45 2.62 2.1 5.62 2.77 5.31 3.39 4.95 3.84 4.61 6.46 6.26 4.71 3.71 5 3.33 5.24 2.91 5.45 2.5 8.49 2.97 5.81 1.48 8.87 1.57 14.94 1.24 32.99.37" class="e Au Av"/><path d="M.28 18.29l33 .12 20.98.76 14.93 1.44 8.88 1.46 5.86 1.32 5.76 1.65 5.62 2.09 7.94 4.22 4.6 3.84 3.56 4.78 2.25 1.99 2.44 1.75 5.22 2.94 5.51 2.37 5.68 1.93 5.8 1.55 8.82 1.75 11.9 1.52 14.97.97 48 .47 14.99.52 14.94 1.32 8.89 1.38 5.86 1.26 5.79 1.6 5.65 1.99 5.46 2.49 5.15 3.07 4.67 3.76 2.07 2.17 1.8 2.39 3.05 5.16 1.97 2.26 4.49 3.97 4.97 3.35 5.29 2.83 5.52 2.35 5.67 1.95 8.72 2.23 11.83 1.96 14.95 1.23 14.99.41 30 .15 17.98.86 14.87 1.94 11.64 2.86 8.4 3.21 5.33 2.76 7.34 5.18 4.31 4.17 1.93 2.29 3.37 4.97 2.6 5.39 1.68 5.76 2.4 5.49 2.97 5.21 3.39 4.95 5.67 6.99 6.2 6.52 6.84 5.84 7.45 5.05 5.26 2.87 8.29 3.5 5.73 1.78 8.79 1.89 5.95.81 8.97.66 32.99.49" class="f" stroke-dasharray="660 662" stroke-dashoffset="661"/><path d="M.75 22.41l33 .13 17.99.6 17.92 1.69 8.86 1.52 5.85 1.36 8.57 2.74 8.11 3.87 4.89 3.47 2.14 2.1 3.61 4.77 2.25 1.98 2.43 1.75 5.22 2.96 5.49 2.4 5.68 1.95 5.78 1.58 8.82 1.78 11.9 1.54 14.97.98 47.99.49 17.99.73 14.91 1.6 11.77 2.32 5.76 1.65 5.63 2.07 5.43 2.56 5.1 3.15 4.6 3.84 2.03 2.2 1.78 2.42 2.77 5.3 3.94 4.51 4.61 3.83 5.03 3.27 5.32 2.77 5.54 2.31 5.69 1.9 8.72 2.19 11.85 1.89 11.96 1.01 14.99.47 30 .15 17.97.84 14.87 1.94 11.64 2.89 8.39 3.25 5.31 2.78 7.32 5.22 4.3 4.17 3.73 4.7 3.09 5.14 2.36 5.51 1.52 5.79 2.1 5.62 4.05 8.03 4.79 7.62 5.41 7.19 6.01 6.7 8.86 8.08 7.17 5.43 7.73 4.6 5.45 2.52 5.63 2.05 8.73 2.18 5.93.9 8.97.7 29.99.52" class="g BE BF"/><path d="M.16 29.13l36 .18 17.99.73 14.92 1.51 8.86 1.53 5.84 1.37 5.75 1.73 5.59 2.17 7.86 4.35 4.56 3.89 1.85 2.35 1.4 2.64 2.06 2.17 4.79 3.61 5.23 2.92 5.51 2.39 5.68 1.94 5.79 1.57 8.82 1.78 11.9 1.53 14.96.95 45 .43 14.99.5 14.94 1.32 11.83 2.01 8.69 2.3 5.65 2.04 5.44 2.51 5.14 3.09 4.69 3.74 2.11 2.13 3.54 4.82 2.75 5.32 1.8 2.4 2.01 2.23 4.45 4.02 4.89 3.48 5.2 2.98 5.44 2.53 8.48 3 5.8 1.54 8.84 1.7 14.91 1.59 14.98.55 33 .23 17.96 1.11 8.92 1.25 5.87 1.19 8.65 2.49 5.58 2.2 7.92 4.26 7.12 5.49 6.03 6.66 4.75 7.63 3.43 8.31 2.82 11.66 3.94 11.33 5.92 13.78 14.06 29.85 4.47 11.13 1.77 5.74 1.27 5.86.65 8.96-1.04 8.93-1.53 5.8-2.03 5.64-4.99 10.91-12.65 23.85-5.27 10.78-3.43 8.32-2.47 8.65-2.32 5.52-1.48 2.61-3.52 4.86-4.18 4.29-7.24 5.33-8.04 4.02-5.64 2.05-8.7 2.29-5.89 1.1-8.93 1.15-17.96 1.04-45 .52-14.95 1.12-11.86 1.81-5.86 1.31-8.61 2.59-8.31 3.46-5.27 2.86-4.97 3.35-4.53 3.93-3.78 4.64-1.28 2.7-1.73 2.44-4.36 4.11-5.01 3.3-5.38 2.65-5.61 2.12-5.75 1.69-5.85 1.33-8.88 1.48-14.93 1.42-17.99.64-44.99.38-14.98.84-11.92 1.34-8.86 1.58-5.83 1.4-8.57 2.74-5.51 2.37-5.23 2.94-2.45 1.73-2.25 1.97-3.68 4.71-4.76 3.63-8.09 3.91-5.68 1.92-5.81 1.52-14.78 2.53-14.94 1.3-17.98.61-36 .15" class="h" stroke-dasharray="1248 1250" stroke-dashoffset="1249"/><path d="M.59 24.27l33 .13 17.99.6 17.91 1.69 8.87 1.52 5.84 1.37 8.57 2.74 8.11 3.87 4.89 3.46 2.16 2.09 3.45 4.86 2.2 2.04 2.4 1.8 5.17 3.04 5.46 2.47 5.65 2.01 5.78 1.63 8.81 1.84 11.89 1.6 14.96 1.03 47.99.5 17.99.72 14.91 1.58 8.85 1.61 5.82 1.46 5.71 1.84 5.55 2.29 5.29 2.82 4.9 3.45 4.3 4.17 1.82 2.38 1.49 2.6 1.11 2.78 3.7 4.71 4.45 4.01 4.92 3.44 5.23 2.93 5.47 2.46 5.64 2.05 8.68 2.36 11.82 2.07 14.94 1.3 14.99.42 30 .17 17.97.97 8.93 1.11 5.9 1.07 5.83 1.4 5.73 1.79 8.27 3.53 5.19 3.01 4.83 3.56 6.34 6.36 3.51 4.86 2.88 5.26 2.18 5.59 2.3 8.69 2.22 5.57 3.99 8.07 4.57 7.74 6.88 9.83 5.72 6.95 8.39 8.57 6.91 5.77 7.48 4.99 8 4.12 5.54 2.29 8.66 2.43 5.92.97 5.97.54 21 .31 8.98.47" class="i" stroke-dasharray="678 680" stroke-dashoffset="679"/><path d="M.26 27.42l36 .17 17.98.73 14.92 1.51 8.87 1.52 5.84 1.37 5.75 1.72 5.59 2.16 7.87 4.35 4.55 3.89 3.49 4.86 2.14 2.1 2.36 1.85 5.11 3.14 5.42 2.55 5.63 2.09 5.75 1.68 8.79 1.93 11.88 1.67 14.96 1.08 15 .38 33 .15 17.98.7 11.94 1.16 11.83 2.03 8.69 2.33 5.63 2.05 5.43 2.54 5.13 3.12 4.65 3.78 2.08 2.16 3.43 4.9 1.22 2.74 1.61 2.53 1.9 2.32 4.32 4.16 4.8 3.59 5.14 3.08 5.4 2.61 8.44 3.12 5.79 1.6 8.81 1.79 14.9 1.7 14.99.62 35.99.29 17.96 1.17 8.91 1.29 5.87 1.22 8.63 2.53 5.57 2.23 7.89 4.31 7.07 5.55 4.12 4.36 5.09 7.41 3.71 8.18 3.05 11.6 2.01 5.65 4.84 10.98 5.59 10.61 6.12 10.32 18.26 27.49 4.66 7.69 3.81 8.16 1.02 2.82 1.21 5.86.08 3-.96 5.9-.95 2.85-2.55 5.43-6.42 10.13-19.3 26.76-8.08 12.64-4.35 7.87-2.59 5.41-2.2 5.58-1.62 5.78-1.14 2.77-2.97 5.21-3.74 4.68-2.12 2.12-4.64 3.79-5.09 3.18-8.18 3.73-5.69 1.89-8.75 2.1-14.86 2.03-14.97.84-36 .27-14.99.49-11.96 1.02-11.85 1.87-8.74 2.13-5.7 1.85-5.57 2.25-5.36 2.67-5.1 3.17-4.7 3.72-4.05 4.41-3.01 5.16-1.98 2.25-4.63 3.8-5.17 3.05-5.48 2.44-5.67 1.94-5.8 1.55-11.79 2.17-14.93 1.49-17.98.68-48 .45-14.97.93-11.91 1.45-8.84 1.67-5.81 1.48-5.71 1.83-5.56 2.27-7.81 4.44-2.34 1.87-3.81 4.61-4.64 3.78-8.03 4.02-5.67 1.97-5.79 1.56-11.8 2.2-17.91 1.74-17.98.64-36 .16" class="j" stroke-dasharray="1266 1268" stroke-dashoffset="1267"/><path d="M2.48 26.65l33 .14 17.99.69 14.92 1.45 8.88 1.47 5.85 1.32 5.77 1.66 5.62 2.1 7.94 4.2 4.66 3.76 1.95 2.28 1.5 2.58 2.05 2.19 4.78 3.61 5.24 2.91 5.52 2.36 5.68 1.93 5.79 1.55 8.83 1.76 11.9 1.52 14.97.94 47.99.48 14.99.61 14.92 1.49 8.86 1.56 5.83 1.4 5.74 1.78 5.57 2.21 5.34 2.73 4.98 3.33 4.44 4.03 1.93 2.29 4.51 7.76 1.87 2.35 4.28 4.2 4.78 3.62 5.13 3.1 8.17 3.78 5.66 1.98 8.7 2.3 11.83 1.98 11.95 1.07 14.99.49 33 .24 17.96 1.12 8.91 1.23 5.88 1.19 8.66 2.45 5.59 2.17 7.94 4.21 4.88 3.49 6.46 6.25 3.61 4.79 3.01 5.18 2.36 5.51 3.15 11.57 3.25 8.39 3.87 8.12 4.32 7.9 8.02 12.67 8.87 12.1 9.58 11.53 16.12 17.78 3.63 4.78 1.43 2.63.9 2.86.27 5.97-.61 2.93-1.18 2.76-3.29 5.01-3.83 4.61-16.24 17.67-7.88 9.05-7.51 9.36-7.01 9.74-4.82 7.6-4.32 7.89-2.48 5.46-2.78 8.55-1.21 2.74-3.12 5.13-3.87 4.57-6.92 5.73-5.16 3.06-8.25 3.57-5.73 1.8-8.77 1.99-14.87 1.92-17.98.84-33 .18-11.99.37-14.95 1.22-11.84 1.93-8.73 2.19-5.69 1.89-5.54 2.29-5.34 2.73-5.06 3.23-4.63 3.81-3.91 4.53-1.4 2.65-1.75 2.43-4.41 4.06-5.04 3.24-5.41 2.59-5.63 2.07-5.77 1.65-5.85 1.31-8.88 1.44-14.94 1.39-17.98.62-45 .37-14.98.83-11.92 1.33-5.92.97-8.78 1.97-5.75 1.71-5.61 2.12-5.4 2.62-5.02 3.27-2.26 1.97-3.8 4.62-4.84 3.53-8.14 3.8-5.7 1.87-5.81 1.48-14.8 2.45-14.94 1.26-17.99.58-36 .15" class="k" stroke-dasharray="1281 1283" stroke-dashoffset="1282"/><path d="M.45 25.81l36 .18 17.99.73 14.92 1.51 8.87 1.52 5.84 1.37 5.74 1.72 5.6 2.17 7.86 4.35 4.53 3.91 3.49 4.86 2.18 2.06 2.39 1.82 5.14 3.08 5.45 2.51 5.64 2.03 5.77 1.66 8.8 1.87 11.88 1.63 14.96 1.05 12 .33 36 .18 17.98.72 14.91 1.58 8.86 1.62 5.81 1.46 5.71 1.84 5.55 2.3 5.28 2.82 4.91 3.46 4.31 4.16 1.83 2.37 1.53 2.57 1.17 2.76 3.62 4.76 4.41 4.08 4.86 3.5 5.2 2.99 5.44 2.53 5.62 2.09 8.66 2.44 11.81 2.14 14.93 1.36 11.99.4 33 .21 17.97.96 8.93 1.11 5.9 1.07 11.56 3.2 8.27 3.55 7.64 4.72 6.72 5.97 3.82 4.63 3.21 5.06 2.58 5.42 1.88 5.69 1.46 5.81 3.23 8.4 3.94 8.09 6.02 10.38 6.76 9.91 9.41 11.67 8.33 8.64 6.75 5.95 7.26 5.31 5.15 3.06 5.43 2.55 5.69 1.92 5.86 1.25 8.95.9 18 .31 8.97.67" class="l" stroke-dasharray="684 686" stroke-dashoffset="685"/><path d="M2.33 46.66l33 .13 17.99.61 8.97.69 8.93 1.09 8.86 1.6 5.82 1.45 5.72 1.82 5.54 2.27 5.28 2.85 2.48 1.68 4.46 4.01 3.28 5 1.93 2.3 4.49 3.97 5 3.31 5.32 2.77 8.36 3.3 5.75 1.71 8.79 1.96 11.87 1.69 14.96 1.05 45 .48 14.99.6 14.91 1.57 11.76 2.36 8.58 2.69 5.52 2.36 5.25 2.89 4.88 3.48 4.35 4.13 1.9 2.32 3.08 5.13 2.23 5.56 1.51 2.59 3.5 4.87 4.01 4.46 4.41 4.07 7.24 5.33 5.17 3.04 8.17 3.77 5.66 2 5.77 1.61 11.8 2.2 14.94 1.25 35.99.42 14.97.87 8.92 1.2 5.88 1.21 5.78 1.61 5.62 2.09 5.4 2.6 5.1 3.16 6.89 5.77 3.98 4.48 3.47 4.9 2.94 5.22 2.46 5.47 3.66 11.42 1.29 5.86 1.41 8.89.85 8.96.65 11.98.51 17.99-.53 17.99-1.35 17.95-2.2 11.78-1.69 5.76-2.18 5.59-2.71 5.35-3.3 5.01-6.03 6.65-7.18 5.41-5.26 2.88-5.53 2.33-5.71 1.83-5.83 1.41-11.86 1.82-14.96.97-33 .27-14.99.64-14.88 1.81-8.79 1.91-5.75 1.7-8.39 3.26-5.37 2.68-5.13 3.1-4.85 3.53-4.48 3.99-3.98 4.48-1.74 2.45-2.65 5.37-3.54 4.82-2.14 2.1-4.77 3.64-5.2 2.97-5.49 2.41-5.68 1.94-5.8 1.53-11.81 2.14-14.92 1.42-14.99.56-48 .52-14.96 1.05-11.88 1.64-8.8 1.88-5.77 1.65-5.65 2.02-5.46 2.47-5.19 3.01-4.71 3.7-2.03 2.21-1.46 2.58-1.98 2.26-4.76 3.63-8.05 4-5.66 1.98-5.79 1.57-5.87 1.25-8.89 1.37-14.94 1.34-17.99.62-35.99.16" class="m" stroke-dasharray="1179 1181" stroke-dashoffset="1180"/><path d="M597.31 598.52l-45 .24-23.97 1.15" class="n" stroke-dasharray="69 71" stroke-dashoffset="70"/><path d="M1.99 2.45l36 .14 17.99.61L73.9 4.84l11.81 2.09 5.82 1.48 5.7 1.87 8.12 3.84 4.77 3.62 3.93 4.5 2.38 1.83 7.9 4.29 5.59 2.16 5.74 1.74 5.84 1.4 8.86 1.58 11.92 1.35 14.97.86 48 .43 17.99.65 14.93 1.4 8.88 1.44 5.86 1.29 5.77 1.64 5.63 2.07 7.98 4.12 4.73 3.69 2 2.23 1.5 2.59 1.86 2.35 2.16 2.08 2.34 1.87 5.04 3.25 5.36 2.69 5.57 2.22 11.54 3.29 14.79 2.45 14.95 1.2 14.99.43 36 .22 17.97.91 8.95.98 8.87 1.5 8.73 2.18 5.68 1.94 5.49 2.41 5.22 2.95 4.8 3.59 2.18 2.06 3.76 4.66 2.58 5.41 3.27 5.01 3.99 4.48 6.86 5.82 5.01 3.3 5.27 2.87 8.28 3.5 5.71 1.83 11.71 2.63 14.89 1.72 14.99.58 30 .2" class="o As At"/><path d="M1.16 6.74l33 .12 17.99.58 14.94 1.24 14.8 2.42 11.53 3.3 8.18 3.73 4.93 3.41 2.12 2.11 1.72 2.45 2.16 2.07 2.42 1.77 5.23 2.94 5.52 2.34 5.7 1.89 5.8 1.51 8.84 1.71 11.9 1.49 14.97.95 47.99.47 17.99.6 14.94 1.35 14.75 2.66 5.79 1.6 5.65 2 5.45 2.51 5.12 3.12 4.56 3.88 1.94 2.28 3.33 4.98 2.12 2.12 2.31 1.91 5 3.31 5.34 2.74 5.55 2.26 5.71 1.85 8.74 2.13 11.86 1.85 14.94 1.2 15 .42 33 .17 14.98.6 14.92 1.56 11.76 2.33 8.6 2.66 5.53 2.32 5.28 2.84 4.92 3.43 4.42 4.05 3.74 4.68 1.55 2.57 3.57 8.23 3.4 4.93 4 4.47 4.43 4.04 4.8 3.6 5.1 3.16 7.99 4.14 5.54 2.3 8.58 2.71 5.84 1.35 8.89 1.43 8.96.85 8.99.41 32.99.3" class="p" stroke-dasharray="642 644" stroke-dashoffset="643"/><path d="M2.09 15.97l30 .09 20.99.69 14.94 1.35 14.76 2.62 5.79 1.57 5.66 1.97 8.05 3.99 4.78 3.63 1.99 2.22 1.5 2.56 2.13 2.11 2.38 1.82 5.16 3.05 5.47 2.45 5.67 1.99 5.78 1.6 8.81 1.81 11.89 1.58 14.97 1.02 50.99.55 14.99.58 14.93 1.43 8.87 1.47 5.85 1.34 5.76 1.68 5.62 2.11 5.39 2.62 5.05 3.23 4.49 3.97 1.93 2.3 2.99 5.18 1.89 2.32 4.43 4.04 4.95 3.4 5.27 2.85 5.51 2.38 5.67 1.96 8.71 2.26 11.83 1.98 14.94 1.26 15 .43 32.99.2 14.98.72 14.89 1.82 11.69 2.69 8.46 3.04 5.39 2.63 7.49 4.97 4.43 4.04 3.84 4.61 1.66 2.5 2.72 5.34 1.82 5.71 2.56 5.42 3.15 5.1 3.6 4.8 6.08 6.63 4.47 4 7.26 5.31 5.18 3.03 5.4 2.6 8.46 3.07 5.8 1.51 8.86 1.57L564 185.9l35.99.5" class="q" stroke-dasharray="654 656" stroke-dashoffset="655"/><path d="M2.21 58.66l36 .19 17.98.8 14.9 1.68 8.84 1.7 5.8 1.53 5.68 1.93 5.5 2.39 7.64 4.72 4.38 4.1 1.79 2.4 1.21 2.71 1.65 2.51 1.95 2.27 4.43 4.04 4.91 3.45 5.24 2.92 5.46 2.47 5.64 2.05 8.68 2.38 11.81 2.11 14.93 1.37 14.99.48 33 .2 17.97.96 8.94 1.08 8.84 1.67 8.66 2.44 5.59 2.15 5.38 2.66 5.07 3.21 4.63 3.8 4.08 4.4 3.37 4.95 1.37 2.67 2.86 8.51 4.11 8 5.08 7.42 5.84 6.84 6.53 6.2 4.7 3.72 4.97 3.36 5.21 2.97 5.43 2.54 8.48 3 5.82 1.47 8.87 1.48 14.96 1.02 30 .37 8.97.68 5.94.84 8.77 2.02 5.66 1.98 5.41 2.58 5.07 3.2 4.62 3.82 5.95 6.74 3.25 5.04 3.88 8.11 2.79 8.55 1.86 8.8 1.02 8.94.26 9-.52 8.98-1.38 8.89-2.37 8.67-2.24 5.57-4.46 7.8-3.76 4.67-4.36 4.11-4.88 3.49-5.28 2.83-5.58 2.22-5.76 1.68-5.87 1.21-5.94.83-8.97.7-33 .44-14.96.96-8.9 1.35-5.85 1.32-5.75 1.71-5.62 2.11-5.44 2.5-7.8 4.5-4.9 3.46-4.63 3.81-6.39 6.33-5.56 7.07-3.07 5.15-3.54 8.25-3.54 4.83-4.32 4.16-4.87 3.49-5.26 2.88-5.53 2.34-5.69 1.88-8.75 2.1-14.85 2.08-17.97 1-36 .24-14.99.42-11.97.88-11.88 1.64-8.8 1.89-5.76 1.66-8.41 3.19-5.36 2.7-5.05 3.23-4.56 3.89-1.95 2.28-1.51 2.58-1.86 2.35-4.59 3.85-2.53 1.61-5.36 2.7-5.6 2.14-5.75 1.71L73.59 443l-17.89 1.91-17.99.69-36 .17" class="r" stroke-dasharray="1116 1118" stroke-dashoffset="1117"/><path d="M2.62 50.47l30 .11 20.98.84 14.91 1.64 8.84 1.66 5.82 1.49 5.7 1.87 5.52 2.34 7.72 4.59 4.49 3.98 1.9 2.31 3.07 5.14 1.99 2.23 4.58 3.88 5.05 3.23 5.36 2.7 5.56 2.24 5.71 1.83 8.75 2.1 11.86 1.83 14.95 1.15 12 .34 33 .17 17.98.82 14.88 1.83 11.68 2.7 8.47 3.04 5.39 2.63 5.08 3.18 4.67 3.76 4.11 4.37 3.42 4.92 2.54 5.42.85 2.88 2.64 5.37 3.33 4.99 3.81 4.63 4.21 4.28 6.95 5.71 5.01 3.3 10.58 5.65 5.56 2.25 5.71 1.84 5.82 1.45 8.87 1.51 14.95 1.17 32.99.36 11.98.72 8.92 1.19 5.87 1.23 5.76 1.66 5.6 2.17 5.34 2.72 5.01 3.3 6.69 5.99 5.56 7.07 3.06 5.16 2.57 5.42 3.88 11.34 2.53 11.73 1.73 14.9.49 14.98-.68 14.98-1.57 11.9-2.83 11.65-3.25 8.38-4.45 7.82-5.74 6.91-6.95 5.7-5.17 3.05-5.46 2.46-5.68 1.94-5.81 1.48-5.9 1.08-8.94 1.05-14.98.71-33 .34-14.94 1.19-11.81 2.11-11.48 3.47-8.24 3.61-5.24 2.92-5 3.31-6.94 5.73-4.15 4.32-3.66 4.75-1.57 2.56-2.45 5.47-1.58 2.54-1.87 2.35-4.32 4.15-4.91 3.45-5.28 2.83-5.55 2.29-8.61 2.6-11.78 2.28-14.92 1.52-14.98.6-36 .2-12 .34-14.95 1.08-11.88 1.7-8.79 1.94-5.75 1.7-5.63 2.08-5.44 2.53-5.16 3.05-4.7 3.72-2.05 2.18-3.51 4.85-4.63 3.8-7.94 4.21-5.62 2.09-5.77 1.66-5.85 1.31-8.88 1.45-14.93 1.43-20.99.72-32.99.12" class="s" stroke-dasharray="1152 1154" stroke-dashoffset="1153"/><path d="M104.77.39l4.96 3.37 4.06 4.38 2.42 1.79 5.24 2.91 5.54 2.29 5.71 1.84 5.82 1.46 8.84 1.67 11.91 1.45 14.97.95 53.99.55 17.99.74 14.92 1.51 8.87 1.52 5.84 1.36 8.56 2.75 8.1 3.9 4.82 3.55 2.03 2.21 1.6 2.53 2.06 2.18 4.79 3.61 5.24 2.91 5.51 2.37 5.68 1.93 11.65 2.82 11.87 1.76 14.96 1.16 14.99.43 36 .18 14.99.55 14.93 1.37 11.82 2.05 11.52 3.32 5.54 2.31 5.26 2.87 4.84 3.54 2.18 2.06 1.95 2.28 2.96 5.2 1.79 2.41 2.02 2.22 4.5 3.95 4.94 3.4 5.26 2.9 5.48 2.44 5.64 2.02 5.77 1.66 8.8 1.87 14.88 1.84 17.98.8 33 .2" class="t" stroke-dasharray="525 527" stroke-dashoffset="526"/><path d="M88.95.43l8.5 2.95 5.36 2.68 4.84 3.52 3.91 4.52 2.39 1.81 5.23 2.93 5.54 2.3 5.71 1.85 11.7 2.65 11.88 1.64 14.96 1.11 14.99.43 39 .19 20.98.86 14.91 1.6 8.85 1.61 5.83 1.44 8.51 2.89 8.02 4.07 4.77 3.63 2.05 2.18 3.59 4.8 2.23 1.99 2.42 1.78 5.17 3.03 5.47 2.47 5.65 2.01 11.63 2.94 14.84 2.15 14.96 1.02 48 .5 17.98.78 14.9 1.68 11.74 2.44 5.75 1.74 5.59 2.16 5.37 2.67 5.03 3.26 4.52 3.94 1.99 2.24 1.76 2.43 2.51 5.42 1.66 2.5 1.92 2.3 4.33 4.15 4.8 3.6 5.14 3.09 5.39 2.62 8.4 3.24 5.72 1.8 8.76 2.05 14.86 2.03 14.97.81 36 .29" class="u" stroke-dasharray="546 548" stroke-dashoffset="547"/><path d="M2.09 70.65l36 .21 17.97.85 8.96.92 8.88 1.41 8.76 2.05 5.72 1.82 8.24 3.61 5.12 3.12 2.39 1.81 4.29 4.18 1.78 2.41 2.74 5.32 3.69 4.72 4.36 4.12 4.81 3.59 5.13 3.1 5.38 2.65 5.57 2.22 8.61 2.62 11.77 2.33 14.92 1.52 14.99.52 32.99.24 11.99.6 8.95.91 8.88 1.47 8.71 2.23 8.42 3.17 5.33 2.74 5.02 3.3 4.58 3.86 4.07 4.4 3.46 4.9 3.93 8.08 2.34 8.68 3.01 8.48 3.67 8.22 4.13 7.99 6.09 10.34 8.33 12.47 25.49 33.37 3.06 5.16 1.18 2.75.79 2.89.26 2.99-.34 2.97-.87 2.87-1.25 2.73-3.19 5.07-5.55 7.08-21.23 25.27-7.2 9.6-6.67 9.97-4.52 7.78-2.69 5.36-2.3 5.54-2.83 8.53-2.96 5.21-3.75 4.68-4.38 4.09-4.89 3.47-5.26 2.88-5.52 2.35-8.59 2.66-8.81 1.84-8.92 1.2-17.96 1.13-36 .27-14.99.48-11.96 1.01-11.85 1.84-8.75 2.11-5.71 1.84-8.29 3.49-5.25 2.89-4.93 3.41-4.45 4.03-1.93 2.29-3.04 5.14-4.22 4.25-2.41 1.79-5.17 3.03-5.49 2.42-5.67 1.94-5.8 1.54-8.84 1.71-8.92 1.17-8.97.75-17.98.68-36 .17" class="v" stroke-dasharray="879 881" stroke-dashoffset="880"/><path d="M2.09 61.49l30 .11 20.98.86 8.95.87 8.9 1.34 8.79 1.94 5.74 1.74 5.6 2.16 5.36 2.68 5.01 3.3 2.32 1.9 4.07 4.4 4.58 7.7 4.16 4.31 4.74 3.67 5.12 3.12 8.16 3.78 5.66 1.99 8.7 2.3 11.83 2 14.94 1.26 15 .41 30 .16 17.97.94 8.93 1.06 8.85 1.66 8.66 2.43 5.6 2.16 5.38 2.64 5.08 3.19 4.68 3.75 4.17 4.31 3.58 4.81 2.91 5.24 2.15 5.59 1.67 5.76 2.35 5.52 2.8 5.3 4.82 7.6 5.48 7.14 3.99 4.48 4.27 4.22 9.12 7.79 7.46 5.02 7.99 4.12 5.59 2.17 8.68 2.38 5.91 1.03 8.96.86 26.99.4 11.97.75 5.94.87 5.84 1.35 8.42 3.16 5.2 2.98 2.43 1.76 4.42 4.04 3.78 4.66 3.08 5.14 2.39 5.5 1.73 5.74 1.11 5.89.51 8.98-.42 5.98-1.07 5.91-1.75 5.73-1.16 2.77-2.89 5.25-3.66 4.75-2.1 2.13-4.69 3.74-5.2 2.98-2.74 1.21-5.68 1.94-5.84 1.35-5.94.89-8.97.69-29.99.43-11.95 1-5.92.99-8.71 2.25-5.64 2.04-5.47 2.46-7.83 4.43-7.33 5.22-6.81 5.88-6.23 6.49-5.61 7.03-3.31 5-2.86 5.27-3.22 8.4-1.45 2.62-1.7 2.47-3.98 4.48-7.1 5.51-5.24 2.91-5.51 2.37-5.69 1.9-8.74 2.12-8.89 1.44-8.95.92-14.98.73-47.99.57-14.96 1.13-11.86 1.79-8.76 2.05-5.73 1.78-5.6 2.16-5.4 2.61-5.13 3.11-4.71 3.7-3.96 4.49-1.37 2.66-1.87 2.34-4.55 3.89-7.85 4.38-5.58 2.19-5.74 1.74-5.84 1.39-8.87 1.53-17.91 1.69-17.99.57-33 .12" class="w" stroke-dasharray="1080 1082" stroke-dashoffset="1081"/><path d="M124.57.97l5.68 1.92 8.74 2.17 8.86 1.54 11.92 1.34 20.97 1.05 42 .25 18 .47 17.94 1.41 11.85 1.84 11.62 2.97 8.34 3.37 5.15 3.06 2.33 1.89 3.76 4.64 2.26 1.97 5.03 3.25 8.2 3.7 11.5 3.4 11.8 2.18 14.91 1.53 17.99.74 39 .21 14.99.45 14.95 1.17 11.86 1.78 11.64 2.9 5.64 2.03 5.43 2.55 5.08 3.19 2.33 1.88 2.12 2.13 3.29 5 1.95 2.27 4.53 3.94 5.02 3.27 5.33 2.74 5.55 2.28 5.71 1.86 5.8 1.52 8.83 1.71 14.91 1.68 17.98.75 33 .17" class="x" stroke-dasharray="495 497" stroke-dashoffset="496"/><path d="M1.95 82.65l36 .23 17.97.91 8.95.98 8.87 1.5 8.73 2.2 5.67 1.94 5.49 2.42 5.21 2.97 4.8 3.59 2.18 2.06 3.77 4.65 1.45 2.62 1.04 2.82 3.11 5.11 3.87 4.59 6.7 5.99 4.92 3.43 7.89 4.32 5.52 2.36 8.55 2.78 11.73 2.49 14.91 1.58 14.99.5 30 .22 8.99.43 8.96.85 8.88 1.44 8.72 2.21 8.4 3.21 5.32 2.78 7.33 5.2 6.3 6.41 5.1 7.4 2.7 5.36 2.17 5.59 2.3 8.69 2.01 11.83 6.89 32.27 2.03 14.86.51 11.98-.65 11.98-1.75 11.87-2.54 11.73-4.36 17.46-2.35 11.76-1.79 5.73-3.91 8.09-5.37 7.2-6.68 6.01-7.67 4.7-5.48 2.43-8.56 2.76-5.85 1.34-8.88 1.42-17.95 1.31-35.99.32-12 .39-14.93 1.36-11.8 2.14-8.67 2.42-5.63 2.07-8.12 3.87-5.11 3.14-4.78 3.63-4.31 4.16-3.56 4.82-1.2 2.74-1.66 2.49-4.19 4.28-2.38 1.83-5.11 3.14-5.44 2.52-5.64 2.03-5.78 1.62-8.82 1.8-8.91 1.22-8.97.78-20.98.75-33 .14" class="y" stroke-dasharray="813 815" stroke-dashoffset="814"/><path d="M1.15 71.58l33 .16 17.98.81 8.96.88 8.89 1.35 8.78 1.99 5.73 1.77 5.58 2.21 5.34 2.72 7.31 5.22 4.12 4.35 1.73 2.45 2.62 5.39 3.6 4.78 4.33 4.15 4.79 3.61 5.13 3.11 5.38 2.65 5.58 2.21 8.61 2.58 11.78 2.29 14.92 1.45 15 .48 32.99.26 17.95 1.27 8.89 1.38 8.75 2.1 8.47 3.02 7.99 4.14 7.22 5.35 4.24 4.24 5.35 7.22 4.05 8.03 1.96 5.67 2.77 11.66 2.83 8.55 4.39 11.17 12.93 30.35 4.1 11.28 1.63 5.77 1.21 5.88.76 8.96-.3 5.98-.92 5.93-1.47 5.82-1.9 5.69-4.64 11.06-11.73 24.32-3.64 8.23-3.13 8.44-1.45 5.81-2.1 5.61-2.94 5.23-1.75 2.43-4 4.47-4.58 3.87-7.66 4.7-5.48 2.44-8.56 2.78-8.79 1.91-8.91 1.25-17.96 1.17-36 .28-11.99.36-14.94 1.24-11.84 1.96-8.71 2.24-5.69 1.92-8.22 3.65-5.19 3-4.87 3.51-4.37 4.1-1.9 2.31-3.01 5.18-4.11 4.35-2.36 1.84-5.11 3.14-5.45 2.52-5.65 2.02-5.78 1.6-8.81 1.79-8.92 1.22-8.96.79-17.99.72-36 .18" class="z" stroke-dasharray="846 848" stroke-dashoffset="847"/><path d="M.84 64.81l33 .16 17.98.75 8.96.83 8.9 1.29 8.8 1.89 5.76 1.68 5.62 2.1 5.4 2.61 5.07 3.2 2.36 1.85 4.22 4.25 1.76 2.43 2.75 5.31 1.81 2.39 4.24 4.24 4.77 3.63 5.13 3.11 8.17 3.77 5.66 1.98 8.7 2.29 11.83 1.99 11.95 1.07 14.99.51 33 .22 17.97 1.04 8.92 1.17 8.81 1.8 8.61 2.62 5.53 2.31 5.3 2.82 4.96 3.36 4.54 3.93 4.01 4.45 3.42 4.93 2.77 5.32 2.07 5.62 2.44 8.65 2.3 5.54 4.08 8.03 4.64 7.7 6.97 9.77 5.79 6.89 6.28 6.44 6.8 5.89 7.31 5.25 7.74 4.58 8.27 3.54 5.75 1.69 5.89 1.16 5.96.69 5.99.32 18 .16 8.98.55 8.85 1.56 5.69 1.9 5.31 2.78 2.44 1.74 2.25 1.98 3.8 4.63 1.51 2.59 2.14 5.6.93 5.91-.31 5.98-.64 2.93-.95 2.85-2.84 5.26-3.98 4.48-2.34 1.87-5.19 3-5.62 2.09-8.81 1.77-8.97.69-24 .37-8.95.88-5.89 1.13-5.78 1.62-8.34 3.36-5.31 2.8-7.56 4.87-7.1 5.53-6.64 6.07-8.17 8.78-5.58 7.06-5.03 7.47-2.96 5.21-2.53 5.44-3.05 8.45-3.14 5.11-1.88 2.33-4.26 4.22-4.8 3.59-5.2 2.99-5.48 2.44-5.67 1.96-8.72 2.19-8.88 1.49-8.95.94-17.97.82-30 .14-15 .39-14.95 1.18-11.85 1.86-8.74 2.13-5.71 1.84-5.57 2.24-5.37 2.67-5.08 3.18-4.67 3.76-3.93 4.52-1.32 2.67-1.8 2.4-4.46 3.99-7.77 4.51-5.56 2.27-5.72 1.8-11.71 2.56-8.92 1.23-8.96.8-17.99.74-35.99.18" class="AA" stroke-dasharray="1041 1043" stroke-dashoffset="1042"/><path d="M.74 68.87l33 .16 20.97 1.01 14.87 1.92 8.79 1.92 5.75 1.72 5.6 2.14 5.38 2.65 5.05 3.24 2.34 1.86 4.2 4.28 1.77 2.42 2.67 5.36 3.66 4.74 4.38 4.09 4.85 3.53 5.17 3.04 5.43 2.56 5.6 2.14 8.65 2.48 11.79 2.18 14.94 1.39 11.99.4 36 .31 17.95 1.25 11.83 1.95 8.69 2.33 8.37 3.31 5.28 2.83 7.28 5.28 4.28 4.19 3.75 4.69 3.15 5.1 3.58 8.24 2.15 8.73 1.77 5.73 5.75 13.85 6.82 13.36 16.61 28.51 5.54 10.64 3.08 8.44 1.3 5.86.57 5.96-.13 3-1.05 5.9-3.12 8.43-5.71 10.55-16.07 25.33-7.51 12.98-5.17 10.82-2.05 5.64-1.66 5.76-2.61 5.4-3.43 4.91-4.12 4.36-4.67 3.75-7.78 4.51-5.53 2.33-8.6 2.64-8.81 1.82-8.92 1.19-17.96 1.09-33 .23-14.99.4-14.95 1.23-11.84 1.94-8.72 2.21-5.69 1.91-5.54 2.3-5.33 2.75-5.05 3.23-4.63 3.8-3.96 4.5-3.14 5.1-4.3 4.17-2.43 1.76-5.19 2.99-5.5 2.39-5.69 1.92-5.8 1.51-8.84 1.7-14.9 1.67-20.98.87-33 .14" class="AB" stroke-dasharray="861 863" stroke-dashoffset="862"/><path d="M.92 66.45l33 .16 20.97 1 14.87 1.91 8.8 1.91 5.75 1.71 5.6 2.12 5.39 2.64 5.06 3.23 2.35 1.86 4.19 4.28 1.75 2.43 2.71 5.34 1.78 2.41 4.19 4.29 4.72 3.69 5.1 3.16 8.12 3.86 8.52 2.91 5.81 1.48 11.82 2.05 14.94 1.29 14.99.4 30 .19 17.97 1.03 8.92 1.17 8.81 1.81 8.6 2.64 5.53 2.32 7.81 4.46 4.75 3.66 4.28 4.2 3.72 4.71 3.11 5.12 2.47 5.46 3.19 11.55 3.27 8.39 3.93 8.09 5.99 10.4 6.69 9.95 7.35 9.49 7.98 8.96 8.65 8.3 7 5.66 7.52 4.94 7.98 4.16 5.59 2.16 8.78 1.94 5.98.47 17.98.44 5.92.98 2.86.89 2.73 1.24 2.48 1.68 2.07 2.16 1.42 2.63.52 2.94-.51 2.94-1.43 2.62-2.09 2.14-2.51 1.64-2.75 1.2-2.87.86-5.92.94-17.99.42-5.98.46-8.79 1.88-5.62 2.09-8 4.11-5.07 3.21-7.24 5.34-6.88 5.81-8.65 8.31-8.08 8.87-7.47 9.38-5.15 7.38-4.64 7.71-3.91 8.1-2.86 8.53-1.29 2.7-1.52 2.59-3.64 4.76-4.32 4.16-4.84 3.54-5.22 2.95-5.49 2.4-5.68 1.93-8.74 2.15L243.2 388l-17.97.97-32.99.2-15 .43-11.96.93-11.87 1.73-5.87 1.26-8.64 2.49-8.35 3.35-5.31 2.78-5.01 3.3-4.57 3.89-2.02 2.21-3.17 5.08-1.91 2.31-4.57 3.87-7.84 4.41-8.42 3.14-5.79 1.57-8.83 1.76-8.92 1.19-8.96.78-20.99.75-33 .13" class="AC" stroke-dasharray="996 998" stroke-dashoffset="997"/><path d="M113.41 98.25l2.03 2.21 4.52 3.95 7.53 4.9 5.38 2.66 5.57 2.22 11.53 3.3 11.83 2.03 11.94 1.09 14.99.52 36 .32 11.98.7 8.94 1.01 8.85 1.61 8.68 2.39 8.34 3.37 7.77 4.52 4.71 3.71 4.23 4.25 5.29 7.26 3.88 8.11 3.14 11.56 4.45 11.14 5.5 10.66 7.88 12.76 8.83 12.12 11.71 13.66 10.62 10.6 17.86 16.01 1.72 2.45.51 2.93-1.55 5.76-1.57 2.55-4 4.46-17.56 16.36-10.55 10.66-8.01 8.94-7.54 9.33-6.96 9.77-6.2 10.27-3.88 8.12-2.81 8.54-1.23 2.73-1.47 2.62-3.53 4.84-2.04 2.2-4.51 3.95-4.99 3.33-5.33 2.75-5.56 2.23-8.64 2.53-8.83 1.72-8.93 1.13-17.96 1.03-33 .21-15 .41-14.94 1.23-11.84 1.93-8.73 2.2-5.69 1.9-5.54 2.29-5.34 2.74-5.04 3.24-4.63 3.82-3.88 4.55-1.34 2.67-1.77 2.42-4.42 4.03-2.47 1.71-5.26 2.88-5.54 2.3-5.71 1.84-5.82 1.46-8.85 1.62-14.91 1.6-17.98.76-36 .18" class="AD" stroke-dasharray="774 776" stroke-dashoffset="775"/><path d="M266.44.07l11.76 2.4 5.75 1.7 5.59 2.17 5.3 2.81 2.44 1.74 4.01 4.43 2.26 1.97 5.08 3.18 8.26 3.56 11.54 3.24 14.8 2.43 14.94 1.25 17.99.57 36 .15 15 .41 14.96 1.08L454 34.8l11.69 2.68 5.7 1.89 5.5 2.38 5.19 3 2.39 1.81 2.19 2.05 3.41 4.9 2.1 2.14 4.78 3.62 5.21 2.96 5.48 2.44 11.44 3.61 5.85 1.3 8.89 1.45 14.93 1.41 17.98.6 33 .15" class="AE" stroke-dasharray="351 353" stroke-dashoffset="352"/><path d="M1.8 94.65l36 .24 17.97.98 8.94 1.06 8.85 1.62 8.68 2.36 5.62 2.08 5.42 2.58 5.11 3.13 4.68 3.75 2.12 2.12 3.69 4.73 1.48 2.6 2.15 5.59 1.38 2.66 3.3 5.01 3.82 4.62 6.5 6.22 4.75 3.66 7.65 4.73 8.16 3.78 5.66 2.01 11.64 2.87 5.93.93 8.95.89 11.99.51 30 .25 8.99.44 8.95.91 8.85 1.59 5.8 1.54 8.41 3.2 5.3 2.81 7.29 5.26 6.25 6.45 5.1 7.4 2.77 5.33 2.31 5.53 3.42 11.49 1.23 5.88 1.34 8.9 1.25 14.94.39 17.99-.47 18-1.09 11.94-2.12 11.81-1.6 5.78-2.04 5.64-4.03 8.04-5.33 7.23-6.59 6.12-7.59 4.81-5.46 2.49-8.55 2.79-5.85 1.32-8.89 1.36-8.97.78-8.99.37-30 .21-11.99.43-14.92 1.54-11.74 2.44-8.57 2.73-5.54 2.31-7.94 4.21-4.99 3.34-6.86 5.82-4.02 4.45-3.33 4.98-2.63 5.38-3.82 4.61-2.22 2.01-4.87 3.49-5.28 2.86-5.53 2.31-5.71 1.85-8.76 2.07-8.88 1.42-8.95.92-20.98.91-33 .15" class="AF" stroke-dasharray="771 773" stroke-dashoffset="772"/><path d="M305.32 181.53l5.56 10.62 7.98 12.7 7.07 9.7 9.64 11.49 6.19 6.52 6.51 6.22 6.82 5.87 7.16 5.45 7.53 4.93 5.26 2.89 5.52 2.32 2.91.74-.36 5.25-15.38 9.32-12.2 8.72-13.67 11.7-12.64 12.81-9.68 11.45-8.75 12.18-4.65 7.7-2.76 5.33-2.35 5.52-1.75 5.74-2.57 5.41-3.44 4.9-2 2.24-4.45 4.02-7.55 4.87-8.23 3.63-8.62 2.59-11.78 2.23-8.95 1-11.97.7-42 .41-14.98.64-14.91 1.63-8.84 1.69-5.81 1.5-5.71 1.85-5.56 2.23-5.37 2.68-5.09 3.17-4.69 3.74-2.12 2.11-1.89 2.33-3.19 5.07-2.07 2.17-2.28 1.94-5.02 3.28-8.18 3.74-11.51 3.36-14.79 2.45-14.95 1.21-17.99.51-30 .1" class="AG" stroke-dasharray="567 569" stroke-dashoffset="568"/><path d="M302.29 174.58l3.64 8.23 4.17 7.97 4.59 7.74 6.7 9.96 5.4 7.19 7.71 9.2 6.13 6.58 6.45 6.28 6.76 5.94 7.08 5.55 7.44 5.07 7.8 4.48 8.21 3.68 2.91.7 6 .16 5.8 1.19" class="AH" stroke-dasharray="138 140" stroke-dashoffset="139"/><path d="M302.21.05l7.89 4.31 8.43 3.13 11.66 2.83 11.86 1.77 8.96.85 14.98.76 48 .37 14.99.44 14.96 1.09 11.89 1.64 11.69 2.66 5.7 1.89 5.5 2.39 5.14 3.07 2.34 1.88 3.79 4.63 2.2 2.03 4.96 3.37 8.14 3.84 5.66 1.96 5.79 1.58 5.86 1.28 8.89 1.42 14.93 1.4 17.99.63 33 .14" class="AI BC BD"/><path d="M1.63 106.65l36 .26 11.99.55 8.96.83 8.9 1.33 8.77 1.99 8.53 2.86 5.46 2.49 5.17 3.03 4.79 3.62 4.25 4.22 1.89 2.33 3.19 5.08 1.24 2.73 1.91 5.68 4.17 7.96 5.21 7.34 6 6.7 6.7 6 7.33 5.21 7.89 4.32 8.34 3.37 5.75 1.71 5.86 1.31 11.89 1.58 11.98.58 27 .24 14.95 1.17 5.91 1 5.83 1.41 5.68 1.92 5.46 2.48 7.57 4.85 4.49 3.98 5.74 6.91 4.54 7.77 3.41 8.32 3.1 11.58 1.72 11.87.53 11.98-.64 11.98-1.33 8.9-2.22 8.72-3.3 8.36-4.57 7.74-5.92 6.76-4.65 3.79-7.78 4.5-5.56 2.25-5.74 1.72-11.8 2.14-11.96.93-33 .39-14.97.93-8.9 1.3-5.86 1.27-5.77 1.64-5.65 2.03-8.16 3.79-7.68 4.67-7.11 5.51-4.37 4.12-4 4.46-3.56 4.83-2.93 5.23-2.32 5.52-1.61 2.53-1.86 2.36-4.28 4.19-4.86 3.51-5.25 2.9-5.52 2.35-5.69 1.89-5.81 1.49-8.85 1.64-14.91 1.56-17.99.67-33 .16" class="AJ" stroke-dasharray="726 728" stroke-dashoffset="727"/><path d="M2.43 99.43l33 .22 11.98.56 8.96.82 8.91 1.31 8.78 1.96 8.55 2.8 5.47 2.44 5.21 2.97 4.84 3.55 2.24 1.99 4.04 4.43 3.34 4.98 1.35 2.68 3.13 8.41 2.99 5.2 3.53 4.85 6.08 6.63 6.86 5.82 7.52 4.92 8.08 3.97 5.62 2.1 5.75 1.68 5.86 1.29 11.89 1.6 14.97.87 33 .39 14.93 1.34 8.83 1.74 5.75 1.69 5.58 2.2 5.32 2.77 7.31 5.23 6.27 6.44 5.09 7.41 3.97 8.07 2.1 5.62 1.71 5.75 2.46 11.74 1.42 11.91.6 14.99-.39 11.99-1.3 11.92-2.49 11.74-2.92 8.51-4.05 8.02-5.34 7.23-6.6 6.1-7.62 4.76-5.48 2.44-5.69 1.91-5.82 1.45-8.87 1.47-14.96 1.12-32.99.33-11.99.55-11.92 1.37-11.72 2.54-8.53 2.86-8.18 3.73-5.2 2.99-7.32 5.24-6.58 6.13-3.85 4.59-3.23 5.05-2.34 5.51-1.61 2.53-3.97 4.49-2.26 1.97-4.92 3.43-8.04 4.01-5.65 2.04-8.69 2.3-8.86 1.59-8.94 1.04-20.97 1.06-36 .2" class="AK" stroke-dasharray="750 752" stroke-dashoffset="751"/><path d="M343.42.17l11.97.94 11.99.48 59.99.66 11.98.7 11.93 1.27 8.87 1.48L466 7.04l5.76 1.68 5.6 2.15 5.33 2.75 2.47 1.7 2.24 1.99 1.73 2.44 2.13 2.11 4.95 3.38 8.15 3.78 11.49 3.45 14.76 2.61 14.94 1.36 17.98.63 36 .16" class="AL" stroke-dasharray="264 266" stroke-dashoffset="265"/><path d="M1.45 118.65l36 .28 11.98.6 8.96.9 8.88 1.45 8.73 2.17 8.44 3.09 5.37 2.68 5.05 3.23 4.63 3.81 4.11 4.37 1.82 2.39 1.65 2.5 2.74 5.33 2.65 8.59 3.44 8.31 2.77 5.32 4.69 7.68 5.27 7.3 5.79 6.88 6.31 6.41 6.86 5.82 7.42 5.09 7.96 4.18 5.58 2.21 8.68 2.37 5.91.99 8.97.78 23.99.31 8.99.53 5.94.8 5.85 1.31 8.4 3.2 5.14 3.09 2.36 1.85 4.21 4.26 3.44 4.91 2.61 5.39.99 2.83 1.37 5.84.56 5.97-.26 5.99-1.1 5.89-2 5.65-1.34 2.69-3.36 4.96-2.01 2.22-4.57 3.87-5.17 3.03-8.44 3.1-5.87 1.26-5.94.78-8.99.53-26.99.41-8.96.87-5.9 1.04-5.82 1.48-8.45 3.07-5.41 2.6-7.72 4.61-4.87 3.5-6.9 5.77-6.4 6.33-5.87 6.82-6.85 9.85-4.11 7.99-1.92 5.68-1.27 2.72-1.53 2.58-3.69 4.72-2.12 2.13-4.65 3.77-7.77 4.52-5.53 2.33-8.6 2.65-8.8 1.84-8.92 1.21-8.97.75-11.99.49-36 .23" class="AM Ay Az"/><path d="M.28 110.1l33 .21 17.97.99 8.93 1.09 5.91 1.06 8.72 2.2 5.67 1.96 5.48 2.43 5.22 2.95 4.86 3.52 4.39 4.08 3.82 4.62 3.16 5.1 2.4 5.49 1.65 5.77 2.37 5.5 2.88 5.27 5.02 7.46 5.74 6.93 6.4 6.32 7.04 5.6 7.65 4.73 8.06 3.99 5.59 2.17 5.75 1.73 5.86 1.29 5.93.9 8.96.76 30 .42 11.97.81 5.93.88 5.86 1.31 5.7 1.84 5.48 2.45 7.52 4.91 4.4 4.08 3.82 4.62 4.59 7.73 2.33 5.52 2.51 8.64 1.44 8.88.44 8.98-.26 6-1.28 8.9-2.46 8.65-2.4 5.49-3.06 5.16-1.78 2.41-4.07 4.41-4.66 3.77-5.14 3.09-5.49 2.41-5.71 1.81-5.86 1.3-5.93.88-11.97.86-32.99.48-8.97.72-5.94.84-11.67 2.78-5.65 2-5.5 2.4-7.88 4.35-4.97 3.36-6.99 5.66-6.38 6.34-5.66 6.99-3.27 5.03-2.66 5.37-2.13 5.59-1.53 2.58-1.77 2.42-4.13 4.35-4.72 3.69-5.15 3.07-5.45 2.5-5.65 2.02-5.79 1.6-8.82 1.76-14.9 1.69-14.98.68-36 .22" class="AN" stroke-dasharray="699 701" stroke-dashoffset="700"/><path d="M485.56 1.49l2.23 2 1.84 2.36 2.29 1.94 5.12 3.1 5.49 2.43 5.68 1.93 11.66 2.78 14.86 2.06 14.96 1.03 15 .39 32.99.12" class="AO" stroke-dasharray="117 119" stroke-dashoffset="118"/><path d="M1.24 130.65l39 .42 11.97.81 11.87 1.69 8.75 2.09 8.48 3.01 7.98 4.14 7.2 5.38 4.21 4.27 3.64 4.77 4.28 7.9 2.03 5.64 2.93 11.63 4.13 11.26 6.03 13.73 12.95 27.06 4.53 11.11 1.78 5.73 1.27 5.86.61 8.97-1.13 8.91-1.6 5.78-2.09 5.63-5.09 10.86-12.81 23.77-5.32 10.75-3.46 8.31-2.51 8.63-2.31 5.53-1.47 2.62-3.51 4.86-2 2.22-4.46 4.01-4.94 3.41-8.04 4.03-8.5 2.92-11.73 2.54L52 382.32l-11.98.69-38.99.35" class="AP" stroke-dasharray="441 443" stroke-dashoffset="442"/><path d="M2.38 120.58l32.99.27 11.99.65 8.94.96 8.87 1.54 8.7 2.3 8.38 3.25 5.31 2.79 4.98 3.34 4.56 3.89 5.86 6.81 3.17 5.1 2.52 5.44 1.01 2.82 2.26 8.71 3.23 8.39 3.92 8.1 5.98 10.4 6.7 9.95 7.36 9.48 7.92 9.01 8.47 8.5 6.79 5.91 4.76 3.65 7.54 4.91 5.32 2.76 8.47 3.01 5.9 1.08 5.98.41 12 .14 5.97.54 2.94.6 2.86.91 2.68 1.33 2.35 1.86 1.71 2.44.67 2.9-.63 2.91-1.7 2.45-2.36 1.85-2.69 1.31-2.86.9-5.92.93-20.98.71-5.9 1.05-5.73 1.77-5.5 2.41-7.81 4.46-7.37 5.16-4.7 3.72-6.78 5.92-6.47 6.26-6.16 6.56-7.71 9.19-7.08 9.69-6.24 10.24-3.86 8.12-2.79 8.54-2.85 5.28-1.74 2.44-4.03 4.44-4.61 3.83-5.06 3.21-5.38 2.65-8.47 3.04-8.74 2.13-8.88 1.43-8.96.9-11.98.62-39 .33" class="AQ" stroke-dasharray="582 584" stroke-dashoffset="583"/><path d="M1.25 118.96l32.99.24 11.99.59 8.95.89 8.89 1.44 8.73 2.16 8.45 3.08 5.37 2.67 5.07 3.2 4.67 3.76 6.06 6.64 3.3 5.01 2.65 5.38 1.95 5.67 1.5 5.8 3.32 8.36 4.06 8.03 4.61 7.73 6.87 9.83 5.69 6.98 8.29 8.66 6.81 5.88 7.37 5.16 7.96 4.2 5.6 2.13 8.71 2.25 5.91 1.01 5.98.54 20.99.33 8.98.56 8.84 1.66 5.64 2.03 5.2 2.98 2.34 1.87 3.99 4.46 2.84 5.27 1.53 5.79.24 2.99-.1 2.99-1.29 5.85-2.69 5.34-3.94 4.51-2.34 1.87-5.22 2.95-5.65 1.99-8.84 1.63-8.98.57-23.99.48-5.96.67-5.89 1.13-5.77 1.64-8.32 3.41-5.29 2.83-7.54 4.91-7.07 5.57-6.64 6.07-6.21 6.51-7.59 9.29-5.1 7.41-3.05 5.17-2.67 5.37-2.96 8.49-1.28 2.71-1.53 2.58-3.66 4.74-2.1 2.15-4.62 3.81-7.73 4.59-5.51 2.37-8.58 2.7-8.81 1.87-8.91 1.23-8.97.76-11.99.5-35.99.24" class="AR Aq Ar"/><path d="M502.48.2l8.61 2.61 8.8 1.87 8.9 1.31 8.96.89 23.97 1.04 36 .15" class="AS" stroke-dasharray="96 98" stroke-dashoffset="97"/><path d="M1 142.65l30 .19 12 .42 11.94 1.1 8.87 1.5 8.7 2.3 8.37 3.3 7.8 4.47 6.93 5.72 4 4.46 4.98 7.49 2.61 5.4 2.91 8.51 3.48 17.65 5.72 23.31 2.51 11.73 1.78 11.87.71 11.97-.57 11.98-1.79 11.86-2.7 11.69-6.35 23.15-2.57 11.71-3.32 8.35-3.06 5.16-3.72 4.7-4.31 4.17-7.36 5.16-8.1 3.89-8.56 2.78-8.79 1.91-8.92 1.23-11.96.88-42 .5" class="AT" stroke-dasharray="405 407" stroke-dashoffset="406"/><path d="M.8 122.99l39 .46 11.96.91 11.86 1.81 8.73 2.19 8.43 3.13 7.92 4.25 7.13 5.48 6.02 6.67 4.72 7.65 3.3 8.36 2.11 8.74 1.97 5.66 3.52 8.29 5.38 10.72 9.13 15.51 18.2 27.52 5.79 10.51 2.29 5.54.8 2.89.63 5.95-.24 2.99-1.52 5.79-3.96 8.07-4.9 7.55-15.86 21.85-8.39 12.43-4.65 7.71-4.21 7.95-3.49 8.29-1.67 5.76-2.47 5.46-3.33 4.98-1.94 2.29-4.35 4.12-7.44 5.05-8.17 3.77-8.57 2.7-8.8 1.87-11.9 1.53-11.98.75-39 .38" class="AU BA BB"/><path d="M2.57 121.72l27 .13 11.99.4 11.96 1.01 8.89 1.36 8.76 2.05 8.49 2.96 8.03 4.05 7.28 5.27 6.22 6.49 4.93 7.52 3.5 8.28 2.23 8.71 3.14 8.43 5.18 10.82 7.54 12.96 6.72 9.94 9.1 11.92 7.77 9.14 14.09 15.58 3.69 4.73 1.53 2.57 2.16 5.59.44 2.96-.35 2.98-1.02 2.81-3.19 5.07-5.82 6.86-14.35 15.33-7.95 8.99-7.58 9.3-7.1 9.68-6.45 10.11-4.23 7.94-2.38 5.51-2.67 8.58-2.84 5.27-3.65 4.76-2.08 2.15-4.6 3.85-5.04 3.24-8.15 3.81-8.57 2.74-11.76 2.37-11.92 1.33-11.98.63-39 .33" class="AV" stroke-dasharray="480 482" stroke-dashoffset="481"/><path d="M2.47 121.24l36 .38 11.97.82 8.92 1.15 8.82 1.79 8.61 2.61 8.22 3.64 7.58 4.83 4.55 3.92 4.03 4.43 4.94 7.51 3.52 8.27 3.21 11.55 4.73 11.02 7.21 13.15 4.85 7.58 5.19 7.35 9.36 11.71 6.03 6.69 6.32 6.4 11.2 9.97 16.7 12.73 1.58 2.52-1.12 5.79-1.77 2.41-4.41 4.06-16.19 13.37-8.87 8.08-12.55 12.9-9.66 11.48-7.09 9.67L118 339.2l-2.79 5.31-2.41 5.5-2.72 8.56-2.88 5.25-3.68 4.73-2.11 2.14-4.62 3.81-5.07 3.21-8.16 3.76-8.58 2.7-11.77 2.34-8.94 1.06-11.97.76-42 .42" class="AW Aw Ax"/><path d="M.73 154.64l39 .51 11.95.99 8.89 1.42 8.71 2.22 8.39 3.25 7.82 4.43 6.97 5.69 5.87 6.8 4.67 7.68 3.55 8.27 2.57 8.62 1.72 8.83 2.99 26.83.98 11.96.39 11.99-.32 12-1 11.95-2.88 23.83-1.9 8.79-3.01 8.47-2.71 5.35-5.19 7.34-4.2 4.28-7.21 5.36-8.02 4.07-8.51 2.91-8.78 1.98-8.9 1.26-11.97.89-38.99.45" class="AX" stroke-dasharray="375 377" stroke-dashoffset="376"/><path d="M.42 166.64l35.99.43 11.97.87 8.9 1.33 8.73 2.16 8.4 3.2 7.83 4.42L87 182.7l6.25 6.46 5.09 7.41 3.97 8.07 2.99 8.49 2.18 8.73 1.94 11.84 1.27 14.94.39 14.99-.3 15-.88 11.96-1.8 11.86-2.2 8.73-3.18 8.41-4.37 7.85-3.64 4.77-6.51 6.19-4.93 3.42-8.04 4.02-8.53 2.86-8.79 1.9-8.93 1.17-11.97.77-36 .37" class="AY" stroke-dasharray="348 350" stroke-dashoffset="349"/><path d="M.04 178.63l36 .49 8.98.64 8.91 1.24 8.75 2.09 5.66 1.98 8.05 4 4.94 3.4 4.5 3.97 5.8 6.86 4.63 7.71 3.56 8.26 2.65 8.6 2.38 11.75 1.34 11.92.49 11.99-.33 12-1.25 11.93-1.7 8.83-2.55 8.63-3.61 8.23-3.09 5.14-5.74 6.91-4.52 3.95-4.97 3.35-8.1 3.9-5.68 1.92-8.77 2.04-8.91 1.23-8.97.66-36 .46" class="AZ" stroke-dasharray="318 320" stroke-dashoffset="319"/><path d="M2.74 190.72l30 .33 8.98.54 8.92 1.16 8.76 2.04 5.66 1.98 5.43 2.56 5.09 3.16 4.66 3.77 6.04 6.66 3.34 4.98 4.02 8.05 2.97 8.49 2.07 8.75 1.58 11.89.38 8.99-.28 9-1.01 8.94-1.85 8.8-2.85 8.53-4.08 8.01-3.46 4.89-4.08 4.41-4.62 3.81-5.08 3.19-8.22 3.63-5.75 1.72-8.82 1.76-8.95.99-8.98.46-30 .28" class="Aa" stroke-dasharray="285 287" stroke-dashoffset="286"/><path d="M2.37 202.72l30 .39 8.97.62 5.95.8 5.87 1.21 5.75 1.72 5.54 2.31 5.22 2.94 4.79 3.61 4.27 4.21 3.68 4.73 4.41 7.83 2.24 5.57 2.41 8.66 1.38 8.89.43 8.99-.53 8.98-.92 5.92-2.34 8.69-2.28 5.54-2.92 5.24-3.6 4.8-4.23 4.24-4.8 3.6-5.24 2.91-5.55 2.27-5.75 1.68-8.85 1.65-14.95 1.13-29.99.34" class="Ab" stroke-dasharray="255 257" stroke-dashoffset="256"/><path d="M1.91 214.71l26.99.37 11.97.85 5.92.95 5.82 1.46 5.63 2.06 5.32 2.76 4.88 3.48 4.31 4.16 3.65 4.76 2.95 5.22 2.26 5.56 1.61 5.77.99 5.92.38 5.98-.23 6-.86 5.93-1.54 5.8-2.26 5.55-3.03 5.17-3.8 4.64-4.5 3.96-5.06 3.22-8.29 3.46-5.8 1.52-5.91 1.03-11.96.97-29.99.43" class="Ac" stroke-dasharray="222 224" stroke-dashoffset="223"/><path d="M1.3 226.69l26.99.51 8.98.63 8.85 1.6 8.45 3.04 5.18 3.02 2.37 1.83 4.22 4.26 1.8 2.4 1.57 2.55 2.47 5.46 1.55 5.79.63 5.96-.31 5.99-1.27 5.86-2.27 5.54-1.51 2.59-1.75 2.43-4.18 4.3-2.38 1.82-5.19 3-8.48 2.98-8.85 1.57-8.98.64-26.99.44" class="Ad" stroke-dasharray="186 188" stroke-dashoffset="187"/><path d="M.45 238.66l5.98.47 18 .22 8.98.53 8.83 1.66 5.62 2.09 5.12 3.11 2.26 1.97 3.71 4.7 2.34 5.5.6 2.94.2 2.99-.22 2.99-.62 2.93-1.03 2.82-1.42 2.64-1.78 2.41-2.09 2.15-2.34 1.87-5.25 2.89-5.69 1.89-8.87 1.47-5.98.37-23.99.48" class="Ae" stroke-dasharray="147 149" stroke-dashoffset="148"/><path d="M2.51 250.91l8.96.76 15 .25 5.95.73 2.92.7 2.82 1.01 2.66 1.39 2.36 1.84 1.88 2.33 1.16 2.75.22 2.98-.79 2.88-1.63 2.51-2.22 2.01-2.58 1.53-2.78 1.11-2.89.79-5.94.85-17.99.39-8.94.98" class="Af" stroke-dasharray="102 104" stroke-dashoffset="103"/><path d="M.62 262.76l.66 2.8" class="Ag" stroke-dasharray="3 5" stroke-dashoffset="4"/><path d="M.25 259.31l8.25 3.59 2.9.74 9 .25" class="Ah" stroke-dasharray="21 23" stroke-dashoffset="22"/></g></svg>